<?xml version="1.0" encoding="utf-8"?>
<!-- Generator: Adobe Illustrator 27.5.0, SVG Export Plug-In . SVG Version: 6.00 Build 0)  -->
<svg version="1.1" id="Layer_1" xmlns="http://www.w3.org/2000/svg" xmlns:xlink="http://www.w3.org/1999/xlink" x="0px" y="0px"
	 viewBox="0 0 441.959 347.872" style="enable-background:new 0 0 441.959 347.872;" xml:space="preserve">
<g>
	<g>
		<path style="fill:#F9DEC5;" d="M341.212,141.409H200.161c-13.443,0-24.341-10.898-24.341-24.341l0,0
			c0-13.443,10.898-24.341,24.341-24.341h141.051c13.443,0,24.341,10.898,24.341,24.341l0,0
			C365.553,130.512,354.655,141.409,341.212,141.409z"/>
		<path style="fill:#F9DEC5;" d="M356.475,223.398H121.269c-13.443,0-24.341-10.898-24.341-24.341v0
			c0-13.443,10.898-24.341,24.341-24.341h235.207c13.443,0,24.341,10.898,24.341,24.341v0
			C380.816,212.5,369.918,223.398,356.475,223.398z"/>
		<path style="fill:#F9DEC5;" d="M406.569,307.696H35.39c-13.443,0-24.341-10.898-24.341-24.341l0,0
			c0-13.443,10.898-24.341,24.341-24.341h371.18c13.443,0,24.341,10.898,24.341,24.341l0,0
			C430.91,296.798,420.012,307.696,406.569,307.696z"/>
		<path style="fill:#F9DEC5;" d="M370.18,169.052H53.521c-5.874,0-10.636-4.762-10.636-10.636v-0.164
			c0-5.874,4.762-10.636,10.636-10.636H370.18c5.874,0,10.636,4.762,10.636,10.636v0.164
			C380.816,164.29,376.054,169.052,370.18,169.052z"/>
		<path style="fill:#F9DEC5;" d="M272.334,85.418h-33.942c-5.874,0-10.636-4.762-10.636-10.636v-0.164
			c0-5.874,4.762-10.636,10.636-10.636h33.942c5.874,0,10.636,4.762,10.636,10.636v0.164
			C282.97,80.657,278.208,85.418,272.334,85.418z"/>
		<path style="fill:#F9DEC5;" d="M392.198,254.014H179.079c-7.412,0-13.421-6.009-13.421-13.421l0,0
			c0-7.412,6.009-13.421,13.421-13.421h213.118c7.412,0,13.421,6.009,13.421,13.421l0,0
			C405.619,248.005,399.61,254.014,392.198,254.014z"/>
		<path style="fill:#F9DEC5;" d="M147.053,254.014H46.803c-7.412,0-13.421-6.009-13.421-13.421l0,0
			c0-7.412,6.009-13.421,13.421-13.421h100.251c7.412,0,13.421,6.009,13.421,13.421l0,0
			C160.475,248.005,154.466,254.014,147.053,254.014z"/>
		<circle style="fill:#F9DEC5;" cx="394.556" cy="158.334" r="11.063"/>
		<circle style="fill:#F9DEC5;" cx="255.228" cy="45.61" r="11.063"/>
		<circle style="fill:#F9DEC5;" cx="141.935" cy="117.069" r="24.551"/>
		<circle style="fill:#F9DEC5;" cx="70.208" cy="199.923" r="12.275"/>
		<circle style="fill:#F9DEC5;" cx="304.415" cy="74.7" r="12.275"/>
	</g>
	<g>
		<ellipse style="fill:#4583A7;" cx="227.594" cy="318.556" rx="194.85" ry="20.619"/>
		<ellipse style="fill:#2F5E78;" cx="228.242" cy="316.475" rx="155.005" ry="14.13"/>
	</g>
	<g>
		<g>
			<g>
				<g>
					<path style="fill:#FCF5D1;" d="M277.475,106.35c0.606,7.573,6.946,7.57,6.946,7.57h0.021c0,0,6.34,0.003,6.946-7.57
						c0,0-3.547-0.594-6.956-0.555C281.023,105.756,277.475,106.35,277.475,106.35z"/>
				</g>
				<rect x="283.769" y="8.697" style="fill:#231F20;" width="1.286" height="73.537"/>
				<g>
					<path style="fill:#4B517F;" d="M308.98,107.891c-2.14-26.722-24.511-26.712-24.511-26.712h-0.075
						c0,0-22.371-0.01-24.511,26.712c0,0,12.517,2.095,24.549,1.959C296.46,109.987,308.98,107.891,308.98,107.891z"/>
				</g>
				<rect x="280.685" y="79.562" style="fill:#808285;" width="7.418" height="2.116"/>
			</g>
		</g>
	</g>
	<g>
		<g>
			<g>
				<path style="fill:#553C2A;" d="M306.597,316.76c-0.129,0-0.261-0.018-0.391-0.058c-0.709-0.216-1.108-0.965-0.893-1.674
					l20.006-65.715c0.216-0.709,0.963-1.113,1.675-0.893c0.709,0.216,1.108,0.965,0.893,1.674l-20.006,65.715
					C307.703,316.388,307.172,316.76,306.597,316.76z"/>
				<path style="fill:#553C2A;" d="M382.748,316.76c-0.575,0-1.107-0.372-1.283-0.951l-20.006-65.715
					c-0.216-0.708,0.184-1.458,0.893-1.674c0.709-0.22,1.458,0.183,1.675,0.893l20.006,65.715c0.216,0.708-0.184,1.458-0.893,1.674
					C383.009,316.741,382.877,316.76,382.748,316.76z"/>
				<path style="fill:#553C2A;" d="M344.672,318.732c-0.741,0-1.342-0.601-1.342-1.342v-67.687c0-0.741,0.6-1.342,1.342-1.342
					c0.741,0,1.342,0.601,1.342,1.342v67.687C346.014,318.131,345.413,318.732,344.672,318.732z"/>
			</g>
			<path style="fill:#764524;" d="M384.545,249.703c-7.019-2.147-22.23-3.635-39.873-3.635c-17.643,0-32.853,1.488-39.873,3.635
				h-4.142v2.671c0,3.483,19.706,6.306,44.014,6.306c24.308,0,44.014-2.823,44.014-6.306v-2.671H384.545z"/>
			<ellipse style="fill:#CEA687;" cx="344.672" cy="249.703" rx="44.014" ry="6.306"/>
		</g>
		<g>
			<g>
				<path style="fill:#E3E2D7;" d="M380.279,243.721l2.702,0.616c0,0-0.598,3.156,0.576,4.61l-23.38,3.294
					c0,0-2.443-0.781-2.379-4.009c0.064-3.228,4.444-2.258,4.444-2.258L380.279,243.721z"/>
				<g>
					<polygon style="fill:#3A527E;" points="341.776,239.68 342.378,238.477 364.462,235.719 382.919,243.839 382.982,244.336 
						357.696,247.26 					"/>
					<path style="fill:#132B48;" d="M357.644,249.456c0,0,0.95,2.339,2.148,3.065l23.84-2.976l-0.075-0.599l-23.426,2.925
						c0,0-0.942-0.441-0.975-1.643c-0.033-1.202,0.182-2.59,1.173-3.064l22.652-2.828l-0.062-0.498l-24.038,3.098L357.644,249.456z"
						/>
					<path style="fill:#5282BD;" d="M342.378,238.477c0,0-2.522,2.959,0.138,5.447l17.276,8.597c0,0-2.459-2.501-0.29-5.689
						L342.378,238.477z"/>
				</g>
			</g>
			<g>
				<path style="fill:#E3E2D7;" d="M375.423,239.03l1.792,0.408c0,0-0.396,2.093,0.382,3.056l-15.502,2.184
					c0,0-1.62-0.518-1.578-2.658c0.042-2.14,2.946-1.497,2.946-1.497L375.423,239.03z"/>
				<g>
					<polygon style="fill:#D8804E;" points="349.893,236.351 350.292,235.553 364.935,233.725 377.174,239.108 377.215,239.439 
						360.449,241.377 					"/>
					<path style="fill:#76382F;" d="M360.414,242.833c0,0,0.629,1.551,1.424,2.032l15.807-1.973l-0.05-0.397l-15.533,1.939
						c0,0-0.625-0.292-0.647-1.089c-0.022-0.797,0.121-1.717,0.778-2.031l15.02-1.875l-0.041-0.33l-15.939,2.054L360.414,242.833z"
						/>
					<path style="fill:#B46651;" d="M350.292,235.553c0,0-1.672,1.962,0.091,3.612l11.455,5.701c0,0-1.63-1.658-0.192-3.772
						L350.292,235.553z"/>
				</g>
			</g>
		</g>
		<g>
			<polygon style="fill:#562C1E;" points="343.418,223.68 354.438,248.111 341.175,248.111 			"/>
			<polygon style="fill:#713E2E;" points="309.701,249.975 319.843,211.426 352.609,211.426 343.052,249.975 			"/>
			<polygon style="fill:#B46651;" points="309.043,249.975 319.185,211.426 351.951,211.426 342.394,249.975 			"/>
			<polygon style="fill:#6ABBB7;" points="313.48,247.652 322.383,214.005 347.709,214.005 339.597,247.652 			"/>
			<g>
				<polygon style="fill:#45807E;" points="347.417,215.216 347.709,214.005 322.382,214.005 313.48,247.652 314.361,247.652 
					322.943,215.216 				"/>
				<polygon style="fill:#D8EFF3;" points="347.417,215.216 322.943,215.216 314.361,247.652 339.597,247.652 				"/>
			</g>
		</g>
	</g>
	<g>
		<g>
			<g>
				<g>
					<g>
						<g>
							<g>
								<path style="fill:#825138;" d="M56.129,312.507l-1.247-0.325c-0.299-0.078-0.467-0.33-0.382-0.572l12.317-38.257
									c0.091-0.255,0.429-0.4,0.746-0.317l3.542,0.923c0.308,0.08,0.475,0.344,0.375,0.59l-14.611,37.658
									C56.767,312.453,56.437,312.587,56.129,312.507z"/>
							</g>
						</g>
					</g>
				</g>
				<g>
					<g>
						<g>
							<g>
								<path style="fill:#825138;" d="M99.391,313.445l-1.291,0.187c-0.309,0.045-0.608-0.113-0.676-0.358l-14.736-40.27
									c-0.072-0.259,0.14-0.514,0.467-0.562l3.667-0.53c0.318-0.046,0.623,0.123,0.681,0.377l12.361,40.614
									C99.92,313.156,99.709,313.399,99.391,313.445z"/>
							</g>
						</g>
					</g>
				</g>
				<g>
					<g>
						<g>
							<g>
								<path style="fill:#A4775A;" d="M83.248,319.492l1.302-0.134c0.312-0.032,0.536-0.255,0.509-0.505l-5.515-47.589
									c-0.029-0.264-0.328-0.456-0.658-0.422l-3.696,0.38c-0.321,0.033-0.548,0.267-0.506,0.523l7.909,47.343
									C82.634,319.345,82.927,319.526,83.248,319.492z"/>
							</g>
						</g>
					</g>
				</g>
			</g>
			<rect x="54.089" y="269.706" style="fill:#72533D;" width="46.171" height="4.971"/>
			<g>
				<rect x="51.401" y="269.487" style="fill:#A4775A;" width="51.548" height="2.175"/>
			</g>
		</g>
		<g>
			<g>
				<path style="fill:#B1693F;" d="M93.513,201.753c-2.344-9.15,4.744-13.374,4.744-13.374s-12.603-0.062-19.316-0.094l0-0.019
					c-0.071,0-0.841,0.004-2.048,0.009c-1.206-0.006-1.977-0.009-2.048-0.009l-0.001,0.019c-6.713,0.032-19.316,0.094-19.316,0.094
					s7.089,4.225,4.744,13.374c-2.344,9.15-12.349,12.607-10.397,35.38c1.952,22.773,15.576,31.923,15.576,31.923h0.06
					c0,0.374,4.79,0.678,10.699,0.678c0.23,0,0.455-0.001,0.681-0.002c0.227,0.001,0.451,0.002,0.681,0.002
					c5.909,0,10.699-0.304,10.699-0.678h0.06c0,0,13.623-9.15,15.576-31.923C105.862,214.36,95.858,210.904,93.513,201.753z"/>
				<ellipse style="fill:#7E4A28;" cx="76.928" cy="188.266" rx="21.398" ry="1.356"/>
				<g>
					<polygon style="fill:#B29E7A;" points="65.698,254.24 63.922,254.24 64.292,252.798 65.157,252.696 					"/>
					<polygon style="fill:#AFA0AB;" points="71.405,260.42 71.179,259.871 71.673,259.801 71.814,260.056 					"/>
					<polygon style="fill:#C1A280;" points="60.487,260.729 60.152,259.916 60.883,259.813 61.093,260.19 					"/>
					<polygon style="fill:#ADC1BD;" points="72.727,251.219 72.257,250.077 73.283,249.932 73.577,250.462 					"/>
					<polygon style="fill:#EBE9A2;" points="66.39,265.831 65.92,264.688 66.946,264.544 67.241,265.073 					"/>
				</g>
				<g>
					<polygon style="fill:#B29E7A;" points="85.923,259.917 87.279,258.77 87.929,260.11 87.335,260.746 					"/>
					<polygon style="fill:#AFA0AB;" points="77.575,258.889 78.102,259.162 77.77,259.534 77.498,259.431 					"/>
					<polygon style="fill:#C1A280;" points="85.708,251.598 86.489,252.003 85.998,252.553 85.594,252.401 					"/>
					<polygon style="fill:#ADC1BD;" points="82.511,266.765 83.609,267.333 82.918,268.107 82.352,267.893 					"/>
					<polygon style="fill:#EBE9A2;" points="77.906,251.519 79.004,252.087 78.313,252.861 77.747,252.647 					"/>
				</g>
				<g>
					<polygon style="fill:#ADC1BD;" points="98.476,246.54 99.831,245.393 100.481,246.733 99.887,247.369 					"/>
					<polygon style="fill:#AFA0AB;" points="90.127,245.512 90.655,245.785 90.323,246.157 90.051,246.054 					"/>
					<polygon style="fill:#C1A280;" points="98.26,238.221 99.042,238.625 98.55,239.176 98.147,239.024 					"/>
					<polygon style="fill:#DBCA74;" points="95.064,253.388 96.161,253.956 95.471,254.729 94.904,254.516 					"/>
					<polygon style="fill:#EBE9A2;" points="90.459,238.142 91.556,238.71 90.866,239.483 90.299,239.27 					"/>
				</g>
				<g>
					<polygon style="fill:#ADC1BD;" points="61.917,241.743 63.273,240.596 63.922,241.936 63.329,242.572 					"/>
					<polygon style="fill:#AFA0AB;" points="53.569,240.714 54.096,240.988 53.764,241.36 53.492,241.257 					"/>
					<polygon style="fill:#C1A280;" points="61.702,233.423 62.483,233.828 61.992,234.379 61.588,234.227 					"/>
					<polygon style="fill:#DBCA74;" points="58.505,248.591 59.602,249.159 58.912,249.932 58.345,249.719 					"/>
					<polygon style="fill:#EBE9A2;" points="53.9,233.345 54.998,233.913 54.307,234.686 53.741,234.473 					"/>
				</g>
				<g>
					<polygon style="fill:#84B5BC;" points="62.801,218.677 64.575,218.587 64.279,220.046 63.421,220.192 					"/>
					<polygon style="fill:#AFA0AB;" points="56.786,212.797 57.04,213.334 56.551,213.428 56.397,213.181 					"/>
					<polygon style="fill:#C1A280;" points="67.675,211.931 68.051,212.727 67.326,212.867 67.097,212.501 					"/>
					<polygon style="fill:#DBCA74;" points="55.936,222.053 56.464,223.17 55.446,223.367 55.125,222.853 					"/>
					<polygon style="fill:#EBE9A2;" points="61.519,207.137 62.047,208.255 61.029,208.451 60.708,207.937 					"/>
				</g>
				<g>
					<polygon style="fill:#84B5BC;" points="84.018,210.222 82.699,211.41 82.009,210.09 82.583,209.436 					"/>
					<polygon style="fill:#AFA0AB;" points="92.395,210.997 91.859,210.74 92.179,210.358 92.455,210.452 					"/>
					<polygon style="fill:#C1A280;" points="84.486,218.531 83.693,218.15 84.168,217.584 84.576,217.724 					"/>
					<polygon style="fill:#DBCA74;" points="87.222,203.274 86.108,202.739 86.774,201.945 87.347,202.141 					"/>
					<polygon style="fill:#EBE9A2;" points="92.287,218.373 91.172,217.839 91.839,217.045 92.412,217.241 					"/>
				</g>
				<g>
					<polygon style="fill:#84B5BC;" points="76.785,201.748 78.023,200.476 78.799,201.747 78.269,202.437 					"/>
					<polygon style="fill:#AFA0AB;" points="68.376,201.53 68.927,201.751 68.633,202.154 68.352,202.078 					"/>
					<polygon style="fill:#C1A280;" points="75.767,193.488 76.584,193.816 76.148,194.412 75.731,194.299 					"/>
					<polygon style="fill:#DBCA74;" points="74.049,208.893 75.196,209.353 74.584,210.189 73.999,210.031 					"/>
					<polygon style="fill:#EBE9A2;" points="67.994,194.163 69.142,194.622 68.529,195.459 67.944,195.301 					"/>
				</g>
				<g>
					<polygon style="fill:#84B5BC;" points="78.711,237.316 80.485,237.226 80.189,238.686 79.331,238.831 					"/>
					<polygon style="fill:#AFA0AB;" points="72.696,231.436 72.95,231.973 72.461,232.068 72.307,231.821 					"/>
					<polygon style="fill:#C1A280;" points="83.585,230.57 83.961,231.366 83.236,231.506 83.007,231.14 					"/>
					<polygon style="fill:#DBCA74;" points="71.846,240.692 72.374,241.809 71.356,242.006 71.035,241.492 					"/>
					<polygon style="fill:#EBE9A2;" points="77.429,225.777 77.957,226.894 76.939,227.09 76.618,226.577 					"/>
				</g>
				<g>
					<polygon style="fill:#ADC1BD;" points="91.357,230.544 91.471,232.316 90.007,232.04 89.851,231.184 					"/>
					<polygon style="fill:#AFA0AB;" points="97.158,224.453 96.624,224.714 96.524,224.225 96.769,224.068 					"/>
					<polygon style="fill:#C1A280;" points="98.167,235.329 97.376,235.715 97.227,234.992 97.59,234.758 					"/>
					<polygon style="fill:#DBCA74;" points="87.892,223.723 86.781,224.266 86.572,223.251 87.081,222.923 					"/>
					<polygon style="fill:#EBE9A2;" points="102.879,229.11 101.769,229.653 101.559,228.638 102.069,228.31 					"/>
				</g>
			</g>
			<g>
				<g>
					<path style="fill:#78A067;" d="M83.923,97.047c-0.831-0.808-1.444-1.793-1.911-2.852c-0.111-0.313-0.214-0.626-0.313-0.935
						c-0.735-2.297-0.867-4.845-0.269-7.228c0.338-1.349,0.911-2.617,1.706-3.775c0.094-0.137,0.239-0.14,0.361-0.037
						c1.781,1.501,2.786,3.893,3.364,6.102c0.624,2.384,0.697,4.833,0.201,7.275c-0.284,0.961-0.693,1.889-1.234,2.735
						C85.124,98.019,84.481,97.59,83.923,97.047z"/>
					<path style="fill:#5B895D;" d="M80.663,105.726c-0.831-0.808-1.444-1.793-1.911-2.851c-0.111-0.313-0.214-0.626-0.313-0.935
						c-0.735-2.297-0.867-4.845-0.269-7.228c0.339-1.349,0.911-2.617,1.706-3.775c0.094-0.137,0.239-0.14,0.361-0.037
						c1.781,1.501,2.786,3.893,3.364,6.102c0.624,2.384,0.697,4.833,0.201,7.275c-0.284,0.961-0.693,1.889-1.234,2.735
						C81.863,106.698,81.221,106.269,80.663,105.726z"/>
					<path style="fill:#78A067;" d="M77.959,113.764c-0.975-0.627-1.772-1.47-2.44-2.414c-0.171-0.284-0.334-0.571-0.493-0.854
						c-1.177-2.105-1.814-4.576-1.702-7.03c0.063-1.389,0.372-2.746,0.921-4.039c0.065-0.153,0.206-0.185,0.347-0.108
						c2.044,1.116,3.505,3.261,4.511,5.311c1.085,2.212,1.644,4.597,1.644,7.089c-0.087,0.998-0.303,1.989-0.665,2.926
						C79.328,114.478,78.613,114.185,77.959,113.764z"/>
					<path style="fill:#5B895D;" d="M76.05,121.745c-1.071-0.444-2.005-1.133-2.83-1.943c-0.218-0.25-0.43-0.503-0.636-0.754
						c-1.532-1.863-2.596-4.182-2.921-6.617c-0.184-1.379-0.121-2.768,0.19-4.139c0.037-0.162,0.17-0.219,0.322-0.168
						c2.209,0.737,4.027,2.588,5.38,4.427c1.46,1.985,2.433,4.233,2.874,6.686c0.091,0.998,0.054,2.011-0.136,2.997
						C77.524,122.205,76.769,122.044,76.05,121.745z"/>
					<path style="fill:#78A067;" d="M74.647,131.979c-1.272-0.5-2.386-1.266-3.372-2.163c-0.262-0.276-0.515-0.556-0.763-0.832
						c-1.837-2.057-3.127-4.607-3.544-7.274c-0.236-1.509-0.18-3.028,0.169-4.521c0.041-0.177,0.198-0.237,0.379-0.179
						c2.622,0.835,4.798,2.884,6.423,4.913c1.754,2.19,2.935,4.661,3.49,7.348c0.122,1.092,0.092,2.199-0.12,3.275
						C76.396,132.501,75.501,132.314,74.647,131.979z"/>
					<path style="fill:#5B895D;" d="M73.847,140.591c-1.235-0.325-2.356-0.938-3.378-1.699c-0.275-0.24-0.544-0.485-0.807-0.728
						c-1.949-1.805-3.456-4.177-4.174-6.787c-0.406-1.477-0.544-3.003-0.409-4.545c0.016-0.183,0.153-0.264,0.327-0.231
						c2.52,0.475,4.781,2.224,6.532,4.03c1.889,1.949,3.286,4.257,4.133,6.868c0.248,1.076,0.359,2.187,0.298,3.292
						C75.525,140.873,74.676,140.809,73.847,140.591z"/>
					<path style="fill:#8AB676;" d="M72.966,149.309c-1.235-0.325-2.356-0.938-3.378-1.7c-0.276-0.24-0.544-0.485-0.807-0.728
						c-1.949-1.805-3.456-4.177-4.174-6.787c-0.406-1.477-0.544-3.003-0.409-4.545c0.016-0.183,0.153-0.264,0.326-0.231
						c2.521,0.475,4.781,2.224,6.532,4.03c1.89,1.949,3.286,4.257,4.133,6.868c0.248,1.075,0.359,2.187,0.298,3.291
						C74.644,149.591,73.795,149.527,72.966,149.309z"/>
					<path style="fill:#5B895D;" d="M73.464,158.449c-1.268-0.15-2.464-0.601-3.581-1.213c-0.306-0.199-0.606-0.404-0.9-0.608
						c-2.182-1.516-4.004-3.655-5.078-6.139c-0.608-1.406-0.957-2.898-1.038-4.444c-0.01-0.183,0.115-0.283,0.291-0.275
						c2.562,0.119,5.044,1.537,7.029,3.081c2.143,1.667,3.847,3.758,5.049,6.226c0.396,1.03,0.66,2.115,0.753,3.218
						C75.165,158.495,74.315,158.55,73.464,158.449z"/>
					<path style="fill:#8AB676;" d="M73.056,166.441c-1.268-0.15-2.464-0.6-3.581-1.213c-0.306-0.199-0.606-0.404-0.9-0.608
						c-2.182-1.516-4.004-3.655-5.078-6.139c-0.608-1.406-0.957-2.898-1.038-4.444c-0.01-0.183,0.115-0.283,0.291-0.274
						c2.562,0.119,5.044,1.537,7.029,3.081c2.143,1.667,3.847,3.758,5.049,6.226c0.396,1.03,0.66,2.115,0.753,3.218
						C74.756,166.487,73.907,166.542,73.056,166.441z"/>
					<path style="fill:#5B895D;" d="M74.326,177.549c-1.316-0.176-2.56-0.682-3.724-1.365c-0.319-0.222-0.632-0.45-0.938-0.677
						c-2.275-1.687-4.183-4.058-5.317-6.802c-0.642-1.553-1.017-3.199-1.113-4.902c-0.011-0.202,0.117-0.31,0.3-0.3
						c2.658,0.152,5.243,1.735,7.315,3.452c2.236,1.853,4.021,4.17,5.288,6.897c0.419,1.138,0.702,2.335,0.808,3.549
						C76.09,177.613,75.21,177.667,74.326,177.549z"/>
					<path style="fill:#446B47;" d="M94.598,85.41c-4.737,4.938-8.28,10.752-10.9,17.054c-2.706,6.509-4.459,13.39-5.715,20.315
						c-1.227,6.761-1.99,13.602-2.57,20.446c-0.751,8.85-0.729,17.761-0.025,26.614c0.526,6.614,1.424,13.207,2.703,19.721
						c0.34,0.031,0.681,0.056,1.021,0.089c-0.241-1.175-0.473-2.352-0.682-3.534c-0.769-4.34-1.378-8.709-1.82-13.095
						c-0.886-8.797-1.095-17.663-0.549-26.489c0.433-7.005,1.18-14.029,2.281-20.961c1.097-6.908,2.633-13.765,5.002-20.355
						c2.292-6.376,5.44-12.601,9.808-17.817c0.524-0.626,1.078-1.228,1.641-1.819C94.944,85.418,94.748,85.253,94.598,85.41z"/>
					<path style="fill:#8AB676;" d="M79.37,175.799c1.723-0.248,3.345-0.89,4.858-1.743c0.414-0.275,0.82-0.558,1.218-0.84
						c2.951-2.091,5.406-4.992,6.84-8.322c0.811-1.885,1.27-3.873,1.363-5.922c0.011-0.243-0.159-0.37-0.399-0.352
						c-3.483,0.257-6.843,2.229-9.527,4.35c-2.896,2.289-5.191,5.123-6.799,8.436c-0.527,1.379-0.874,2.825-0.989,4.288
						C77.058,175.925,78.214,175.965,79.37,175.799z"/>
					<path style="fill:#5B895D;" d="M78.749,165.508c1.74,0.028,3.443-0.35,5.072-0.954c0.453-0.207,0.898-0.422,1.335-0.637
						c3.244-1.598,6.127-4.075,8.069-7.137c1.099-1.733,1.866-3.623,2.281-5.632c0.049-0.238-0.099-0.39-0.338-0.411
						c-3.48-0.297-7.11,1.12-10.094,2.79c-3.221,1.802-5.936,4.238-8.047,7.255c-0.738,1.279-1.31,2.652-1.655,4.078
						C76.446,165.268,77.581,165.49,78.749,165.508z"/>
					<path style="fill:#8AB676;" d="M78.272,155.605c1.492,0.124,2.968-0.112,4.391-0.551c0.397-0.156,0.788-0.321,1.172-0.486
						c2.849-1.225,5.426-3.248,7.219-5.84c1.015-1.467,1.752-3.093,2.192-4.843c0.052-0.207-0.068-0.35-0.273-0.382
						c-2.973-0.462-6.146,0.581-8.776,1.885c-2.838,1.407-5.268,3.403-7.205,5.946c-0.687,1.087-1.234,2.267-1.59,3.507
						C76.307,155.26,77.271,155.522,78.272,155.605z"/>
					<path style="fill:#5B895D;" d="M78.726,148.256c1.492-0.075,2.924-0.506,4.276-1.132c0.373-0.208,0.74-0.424,1.099-0.639
						c2.666-1.596,4.963-3.949,6.413-6.763c0.821-1.593,1.346-3.307,1.563-5.104c0.026-0.213-0.112-0.339-0.318-0.344
						c-3-0.064-6.009,1.395-8.448,3.04c-2.633,1.776-4.787,4.082-6.386,6.867c-0.543,1.171-0.938,2.417-1.134,3.696
						C76.738,148.174,77.725,148.306,78.726,148.256z"/>
					<path style="fill:#8AB676;" d="M79.198,139.281c1.492-0.075,2.923-0.506,4.276-1.132c0.373-0.208,0.74-0.424,1.099-0.639
						c2.666-1.597,4.963-3.949,6.413-6.763c0.821-1.593,1.346-3.306,1.563-5.104c0.026-0.213-0.112-0.339-0.318-0.343
						c-3-0.064-6.009,1.394-8.448,3.04c-2.632,1.776-4.787,4.082-6.386,6.867c-0.543,1.171-0.938,2.417-1.134,3.696
						C77.209,139.199,78.196,139.331,79.198,139.281z"/>
					<path style="fill:#5B895D;" d="M80.461,130.09c1.492-0.075,2.924-0.506,4.276-1.132c0.373-0.208,0.74-0.424,1.099-0.639
						c2.666-1.596,4.963-3.949,6.413-6.763c0.821-1.593,1.346-3.307,1.563-5.104c0.026-0.213-0.112-0.339-0.318-0.344
						c-3-0.064-6.009,1.395-8.448,3.04c-2.632,1.776-4.787,4.082-6.386,6.867c-0.543,1.171-0.938,2.417-1.134,3.696
						C78.473,130.009,79.46,130.14,80.461,130.09z"/>
					<path style="fill:#8AB676;" d="M81.508,123.188c1.492-0.075,2.923-0.506,4.276-1.132c0.373-0.208,0.74-0.424,1.099-0.639
						c2.666-1.596,4.963-3.949,6.413-6.763c0.821-1.593,1.346-3.307,1.563-5.104c0.026-0.213-0.112-0.339-0.318-0.343
						c-3-0.064-6.009,1.395-8.448,3.04c-2.632,1.776-4.787,4.082-6.386,6.867c-0.543,1.171-0.938,2.417-1.134,3.696
						C79.52,123.107,80.507,123.238,81.508,123.188z"/>
					<path style="fill:#5B895D;" d="M83.053,115.6c1.492-0.075,2.923-0.506,4.276-1.132c0.373-0.208,0.74-0.424,1.099-0.639
						c2.666-1.597,4.963-3.949,6.413-6.763c0.821-1.593,1.346-3.307,1.563-5.104c0.026-0.213-0.112-0.339-0.318-0.344
						c-3-0.064-6.009,1.395-8.448,3.04c-2.632,1.776-4.787,4.082-6.386,6.867c-0.543,1.171-0.938,2.417-1.134,3.696
						C81.065,115.519,82.052,115.65,83.053,115.6z"/>
					<path style="fill:#8AB676;" d="M89.987,94.03c1.089-0.73,1.972-1.698,2.707-2.775c0.187-0.324,0.366-0.65,0.539-0.972
						c1.287-2.394,1.954-5.182,1.777-7.933c-0.1-1.557-0.477-3.07-1.125-4.506c-0.077-0.17-0.237-0.202-0.394-0.112
						c-2.286,1.308-3.893,3.754-4.987,6.081c-1.181,2.512-1.762,5.202-1.71,7.998c0.119,1.117,0.384,2.223,0.813,3.264
						C88.455,94.868,89.257,94.52,89.987,94.03z"/>
					<path style="fill:#5B895D;" d="M88.832,97.694c1.158-0.058,2.269-0.393,3.319-0.878c0.29-0.162,0.574-0.329,0.853-0.496
						c2.069-1.239,3.852-3.065,4.977-5.249c0.637-1.236,1.045-2.566,1.213-3.961c0.02-0.165-0.087-0.263-0.247-0.267
						c-2.328-0.05-4.663,1.082-6.556,2.359c-2.043,1.378-3.716,3.168-4.956,5.329c-0.422,0.909-0.728,1.875-0.88,2.869
						C87.289,97.631,88.055,97.733,88.832,97.694z"/>
					<path style="fill:#8AB676;" d="M85.762,107.063c1.492-0.075,2.923-0.506,4.276-1.132c0.373-0.208,0.74-0.424,1.099-0.639
						c2.666-1.596,4.963-3.949,6.413-6.763c0.821-1.593,1.346-3.307,1.563-5.104c0.026-0.213-0.112-0.339-0.318-0.344
						c-3-0.064-6.009,1.395-8.448,3.04c-2.633,1.776-4.788,4.082-6.386,6.867c-0.543,1.171-0.938,2.417-1.134,3.696
						C83.773,106.982,84.76,107.114,85.762,107.063z"/>
				</g>
				<g>
					<path style="fill:#78A067;" d="M108.239,124.075c-0.454-0.738-0.719-1.564-0.864-2.417c-0.023-0.247-0.04-0.493-0.056-0.735
						c-0.113-1.8,0.257-3.671,1.126-5.29c0.492-0.916,1.139-1.731,1.927-2.425c0.093-0.082,0.199-0.058,0.269,0.039
						c1.017,1.413,1.308,3.332,1.323,5.039c0.016,1.843-0.378,3.631-1.185,5.311c-0.382,0.645-0.847,1.243-1.395,1.757
						C108.931,124.999,108.544,124.57,108.239,124.075z"/>
					<path style="fill:#5B895D;" d="M104.288,129.771c-0.454-0.738-0.719-1.564-0.864-2.417c-0.023-0.247-0.041-0.493-0.056-0.735
						c-0.113-1.8,0.257-3.671,1.126-5.29c0.492-0.916,1.139-1.731,1.927-2.425c0.093-0.082,0.199-0.058,0.269,0.039
						c1.016,1.413,1.308,3.332,1.323,5.039c0.016,1.842-0.378,3.631-1.185,5.311c-0.382,0.645-0.848,1.243-1.395,1.757
						C104.98,130.695,104.593,130.266,104.288,129.771z"/>
					<path style="fill:#78A067;" d="M100.858,135.104c-0.592-0.633-1.016-1.39-1.328-2.197c-0.072-0.237-0.138-0.475-0.201-0.71
						c-0.469-1.741-0.478-3.649,0.051-5.408c0.3-0.996,0.772-1.923,1.406-2.76c0.075-0.099,0.183-0.097,0.271-0.015
						c1.277,1.183,1.945,3.005,2.299,4.675c0.382,1.803,0.352,3.634-0.104,5.44c-0.246,0.708-0.583,1.386-1.017,1.999
						C101.72,135.872,101.255,135.528,100.858,135.104z"/>
					<path style="fill:#5B895D;" d="M98.015,140.541c-0.695-0.518-1.246-1.188-1.696-1.926c-0.113-0.221-0.22-0.443-0.324-0.663
						c-0.77-1.631-1.117-3.506-0.908-5.332c0.119-1.033,0.419-2.029,0.895-2.965c0.057-0.111,0.163-0.127,0.264-0.063
						c1.467,0.938,2.446,2.613,3.091,4.193c0.696,1.706,0.99,3.514,0.861,5.373c-0.116,0.74-0.328,1.468-0.647,2.148
						C99,141.144,98.481,140.889,98.015,140.541z"/>
					<path style="fill:#78A067;" d="M95.126,147.703c-0.831-0.595-1.498-1.354-2.049-2.185c-0.139-0.248-0.272-0.497-0.401-0.743
						c-0.955-1.827-1.424-3.911-1.239-5.921c0.105-1.138,0.423-2.228,0.949-3.247c0.062-0.121,0.187-0.135,0.307-0.061
						c1.748,1.085,2.951,2.968,3.758,4.736c0.871,1.908,1.275,3.916,1.186,5.965c-0.112,0.814-0.336,1.611-0.686,2.352
						C96.299,148.402,95.684,148.103,95.126,147.703z"/>
					<path style="fill:#5B895D;" d="M92.972,153.801c-0.836-0.462-1.537-1.111-2.138-1.85c-0.156-0.224-0.306-0.451-0.452-0.675
						c-1.083-1.665-1.742-3.66-1.785-5.683c-0.024-1.145,0.155-2.276,0.535-3.37c0.045-0.13,0.159-0.164,0.279-0.108
						c1.74,0.805,3.059,2.487,3.998,4.116c1.014,1.758,1.604,3.687,1.74,5.735c-0.017,0.825-0.14,1.651-0.386,2.441
						C94.137,154.312,93.533,154.111,92.972,153.801z"/>
					<path style="fill:#8AB676;" d="M90.739,159.96c-0.836-0.462-1.537-1.111-2.138-1.85c-0.156-0.224-0.306-0.451-0.452-0.675
						c-1.083-1.665-1.742-3.66-1.785-5.683c-0.024-1.145,0.155-2.277,0.535-3.37c0.045-0.13,0.159-0.163,0.279-0.108
						c1.741,0.805,3.059,2.487,3.998,4.116c1.013,1.758,1.604,3.688,1.74,5.735c-0.017,0.825-0.14,1.651-0.386,2.441
						C91.904,160.471,91.3,160.27,90.739,159.96z"/>
					<path style="fill:#5B895D;" d="M89.429,166.678c-0.892-0.341-1.676-0.886-2.375-1.534c-0.186-0.2-0.366-0.404-0.541-0.605
						c-1.305-1.498-2.235-3.382-2.559-5.379c-0.184-1.131-0.164-2.276,0.06-3.411c0.027-0.135,0.135-0.184,0.261-0.146
						c1.836,0.555,3.376,2.036,4.533,3.519c1.249,1.6,2.102,3.428,2.522,5.437c0.098,0.819,0.092,1.654-0.042,2.471
						C90.653,167.022,90.028,166.906,89.429,166.678z"/>
					<path style="fill:#8AB676;" d="M87.671,172.397c-0.892-0.341-1.676-0.886-2.375-1.534c-0.186-0.2-0.366-0.404-0.541-0.605
						c-1.305-1.498-2.235-3.382-2.559-5.379c-0.184-1.13-0.164-2.276,0.06-3.411c0.027-0.134,0.135-0.184,0.261-0.146
						c1.836,0.555,3.376,2.036,4.533,3.519c1.249,1.6,2.102,3.428,2.522,5.437c0.098,0.819,0.092,1.654-0.042,2.471
						C88.896,172.741,88.27,172.626,87.671,172.397z"/>
					<path style="fill:#5B895D;" d="M86.561,180.682c-0.922-0.368-1.731-0.962-2.45-1.671c-0.191-0.219-0.376-0.442-0.557-0.662
						c-1.341-1.639-2.29-3.707-2.611-5.904c-0.182-1.243-0.152-2.505,0.089-3.757c0.028-0.148,0.141-0.204,0.272-0.163
						c1.899,0.596,3.484,2.216,4.672,3.84c1.282,1.752,2.152,3.759,2.572,5.967c0.096,0.901,0.082,1.821-0.063,2.721
						C87.828,181.051,87.18,180.929,86.561,180.682z"/>
					<path style="fill:#446B47;" d="M118.106,117.59c-4.337,2.714-7.969,6.281-11.021,10.37c-3.152,4.224-5.681,8.893-7.858,13.683
						c-2.126,4.677-3.93,9.497-5.602,14.353c-2.162,6.279-3.776,12.743-4.884,19.29c-0.788,4.652-1.323,9.352-1.601,14.065
						c0.003,0,0.005,0.001,0.008,0.001c-0.006-0.001-0.004-0.001-0.008-0.001l0,0c0.005,0.001,0.006,0.001,0.017,0.002
						c0.13,0.014,0.261,0.02,0.392,0.024c0.107,0.003,0.214,0.009,0.321,0.015c0.031-0.584,0.06-1.167,0.102-1.75
						c0.236-3.287,0.593-6.566,1.075-9.827c0.966-6.54,2.436-13.006,4.445-19.304c1.595-5,3.421-9.955,5.486-14.779
						c2.059-4.807,4.426-9.498,7.348-13.842c2.827-4.203,6.248-8.141,10.368-11.124c0.495-0.358,1.006-0.693,1.522-1.019
						C118.355,117.659,118.243,117.504,118.106,117.59z"/>
					<path style="fill:#8AB676;" d="M90.538,180.336c1.294,0.135,2.588-0.034,3.84-0.376c0.351-0.124,0.697-0.255,1.036-0.386
						c2.521-0.976,4.832-2.631,6.48-4.783c0.933-1.218,1.629-2.576,2.071-4.044c0.052-0.174-0.048-0.297-0.225-0.328
						c-2.572-0.451-5.369,0.365-7.702,1.412c-2.518,1.13-4.7,2.765-6.472,4.872c-0.634,0.904-1.151,1.888-1.501,2.928
						C88.839,180.005,89.669,180.245,90.538,180.336z"/>
					<path style="fill:#5B895D;" d="M91.969,172.762c1.257,0.338,2.56,0.376,3.852,0.236c0.366-0.067,0.728-0.142,1.084-0.217
						c2.644-0.566,5.187-1.834,7.155-3.699c1.114-1.055,2.015-2.286,2.684-3.666c0.079-0.163,0-0.301-0.17-0.36
						c-2.469-0.852-5.359-0.488-7.828,0.177c-2.665,0.718-5.078,1.988-7.16,3.788c-0.769,0.792-1.435,1.683-1.945,2.654
						C90.344,172.166,91.126,172.535,91.969,172.762z"/>
					<path style="fill:#8AB676;" d="M93.435,165.495c1.059,0.363,2.173,0.462,3.284,0.403c0.316-0.041,0.63-0.089,0.938-0.138
						c2.29-0.367,4.528-1.363,6.302-2.914c1.004-0.878,1.836-1.922,2.475-3.11c0.076-0.141,0.014-0.267-0.128-0.327
						c-2.071-0.878-4.562-0.702-6.707-0.238c-2.315,0.501-4.442,1.504-6.311,2.993c-0.697,0.662-1.309,1.418-1.794,2.252
						C92.073,164.885,92.724,165.251,93.435,165.495z"/>
					<path style="fill:#5B895D;" d="M95.108,160.25c1.095,0.219,2.212,0.168,3.307-0.039c0.309-0.083,0.614-0.172,0.913-0.262
						c2.225-0.67,4.32-1.956,5.886-3.731c0.886-1.005,1.581-2.151,2.066-3.415c0.057-0.15-0.019-0.266-0.168-0.307
						c-2.163-0.595-4.611-0.088-6.68,0.659c-2.233,0.806-4.217,2.084-5.885,3.811c-0.608,0.75-1.122,1.581-1.498,2.472
						C93.681,159.827,94.372,160.103,95.108,160.25z"/>
					<path style="fill:#8AB676;" d="M97.09,153.829c1.095,0.219,2.212,0.168,3.307-0.039c0.309-0.083,0.614-0.172,0.913-0.262
						c2.225-0.67,4.32-1.955,5.886-3.731c0.886-1.005,1.581-2.151,2.066-3.415c0.058-0.15-0.019-0.266-0.168-0.307
						c-2.163-0.595-4.611-0.088-6.68,0.659c-2.233,0.806-4.217,2.084-5.885,3.811c-0.608,0.75-1.122,1.581-1.498,2.472
						C95.664,153.407,96.355,153.682,97.09,153.829z"/>
					<path style="fill:#5B895D;" d="M99.687,147.397c1.095,0.218,2.212,0.168,3.307-0.039c0.309-0.083,0.614-0.172,0.913-0.262
						c2.225-0.67,4.32-1.955,5.886-3.731c0.886-1.005,1.581-2.151,2.066-3.415c0.058-0.15-0.019-0.266-0.168-0.307
						c-2.163-0.595-4.611-0.088-6.68,0.659c-2.233,0.806-4.217,2.084-5.885,3.811c-0.608,0.75-1.122,1.581-1.498,2.472
						C98.26,146.975,98.952,147.25,99.687,147.397z"/>
					<path style="fill:#8AB676;" d="M101.708,142.585c1.095,0.219,2.212,0.168,3.307-0.039c0.309-0.083,0.614-0.172,0.913-0.262
						c2.225-0.67,4.32-1.955,5.886-3.731c0.886-1.005,1.581-2.151,2.066-3.415c0.057-0.15-0.019-0.266-0.168-0.307
						c-2.163-0.595-4.611-0.088-6.68,0.659c-2.233,0.806-4.217,2.084-5.885,3.811c-0.608,0.75-1.122,1.581-1.498,2.472
						C100.281,142.162,100.973,142.438,101.708,142.585z"/>
					<path style="fill:#5B895D;" d="M104.216,137.366c1.095,0.218,2.212,0.168,3.307-0.039c0.309-0.083,0.614-0.172,0.913-0.262
						c2.225-0.67,4.32-1.955,5.886-3.731c0.886-1.005,1.581-2.151,2.066-3.415c0.058-0.15-0.019-0.266-0.168-0.307
						c-2.163-0.595-4.611-0.088-6.68,0.659c-2.233,0.806-4.217,2.084-5.885,3.811c-0.608,0.75-1.122,1.581-1.498,2.472
						C102.789,136.943,103.481,137.219,104.216,137.366z"/>
					<path style="fill:#8AB676;" d="M113.187,122.996c0.923-0.33,1.74-0.87,2.47-1.517c0.195-0.201,0.384-0.404,0.568-0.606
						c1.37-1.5,2.365-3.4,2.739-5.426c0.212-1.147,0.215-2.313,0.008-3.472c-0.025-0.137-0.135-0.19-0.265-0.153
						c-1.896,0.531-3.509,2.01-4.727,3.497c-1.315,1.605-2.229,3.449-2.702,5.486c-0.118,0.832-0.128,1.681-0.007,2.515
						C111.922,123.324,112.567,123.218,113.187,122.996z"/>
					<path style="fill:#5B895D;" d="M111.679,125.441c0.85,0.17,1.717,0.13,2.567-0.03c0.239-0.064,0.476-0.133,0.709-0.203
						c1.727-0.52,3.353-1.518,4.568-2.895c0.688-0.78,1.227-1.669,1.604-2.65c0.045-0.116-0.015-0.207-0.13-0.238
						c-1.679-0.462-3.579-0.068-5.185,0.512c-1.733,0.626-3.273,1.617-4.567,2.957c-0.472,0.582-0.871,1.227-1.163,1.919
						C110.572,125.114,111.109,125.327,111.679,125.441z"/>
					<path style="fill:#8AB676;" d="M107.74,131.673c1.095,0.218,2.212,0.168,3.307-0.039c0.309-0.083,0.614-0.172,0.913-0.262
						c2.225-0.67,4.32-1.955,5.886-3.731c0.886-1.005,1.581-2.151,2.067-3.415c0.057-0.15-0.019-0.266-0.168-0.307
						c-2.163-0.595-4.611-0.088-6.681,0.659c-2.233,0.806-4.217,2.084-5.885,3.811c-0.608,0.75-1.122,1.58-1.498,2.472
						C106.313,131.25,107.005,131.526,107.74,131.673z"/>
				</g>
				<g>
					<path style="fill:#78A067;" d="M41.949,109.46c0.608-0.987,0.962-2.092,1.156-3.232c0.031-0.33,0.054-0.66,0.075-0.983
						c0.151-2.407-0.344-4.91-1.507-7.075c-0.658-1.225-1.523-2.315-2.578-3.244c-0.125-0.11-0.266-0.078-0.36,0.053
						c-1.36,1.89-1.749,4.456-1.77,6.739c-0.022,2.464,0.506,4.856,1.585,7.103c0.51,0.862,1.133,1.662,1.865,2.35
						C41.023,110.696,41.541,110.122,41.949,109.46z"/>
					<path style="fill:#5B895D;" d="M47.233,117.078c0.608-0.987,0.962-2.092,1.156-3.232c0.031-0.33,0.054-0.66,0.075-0.983
						c0.151-2.407-0.344-4.91-1.507-7.075c-0.658-1.225-1.523-2.315-2.577-3.243c-0.125-0.11-0.266-0.078-0.36,0.052
						c-1.36,1.89-1.75,4.456-1.77,6.739c-0.021,2.464,0.506,4.856,1.585,7.103c0.51,0.863,1.133,1.662,1.866,2.35
						C46.307,118.314,46.825,117.74,47.233,117.078z"/>
					<path style="fill:#78A067;" d="M51.821,124.211c0.792-0.846,1.359-1.859,1.776-2.938c0.096-0.317,0.184-0.635,0.269-0.949
						c0.627-2.329,0.64-4.88-0.069-7.233c-0.401-1.332-1.032-2.571-1.881-3.691c-0.101-0.133-0.245-0.129-0.363-0.02
						c-1.708,1.582-2.601,4.019-3.075,6.253c-0.511,2.411-0.47,4.86,0.14,7.276c0.328,0.947,0.78,1.854,1.361,2.674
						C50.667,125.238,51.289,124.779,51.821,124.211z"/>
					<path style="fill:#5B895D;" d="M55.623,131.483c0.93-0.693,1.667-1.589,2.268-2.577c0.151-0.295,0.294-0.593,0.433-0.886
						c1.03-2.181,1.495-4.69,1.214-7.131c-0.159-1.382-0.56-2.714-1.197-3.966c-0.076-0.148-0.219-0.171-0.354-0.084
						c-1.962,1.254-3.272,3.494-4.134,5.609c-0.931,2.282-1.324,4.7-1.152,7.186c0.155,0.99,0.439,1.963,0.865,2.873
						C54.306,132.289,55,131.947,55.623,131.483z"/>
					<path style="fill:#78A067;" d="M59.487,141.062c1.111-0.796,2.004-1.811,2.741-2.922c0.186-0.331,0.364-0.665,0.536-0.994
						c1.278-2.444,1.905-5.231,1.658-7.919c-0.14-1.521-0.566-2.98-1.269-4.343c-0.083-0.161-0.25-0.181-0.411-0.081
						c-2.338,1.451-3.947,3.969-5.026,6.335c-1.165,2.552-1.706,5.237-1.587,7.978c0.149,1.089,0.449,2.155,0.917,3.146
						C57.918,141.996,58.741,141.596,59.487,141.062z"/>
					<path style="fill:#5B895D;" d="M62.368,149.217c1.118-0.617,2.055-1.486,2.859-2.474c0.209-0.3,0.409-0.603,0.604-0.903
						c1.449-2.227,2.33-4.895,2.387-7.601c0.033-1.532-0.207-3.045-0.715-4.507c-0.06-0.173-0.213-0.219-0.373-0.145
						c-2.328,1.077-4.092,3.326-5.348,5.505c-1.356,2.352-2.145,4.932-2.328,7.671c0.022,1.104,0.187,2.208,0.516,3.265
						C60.811,149.901,61.618,149.632,62.368,149.217z"/>
					<path style="fill:#8AB676;" d="M65.355,157.454c1.118-0.617,2.055-1.486,2.859-2.474c0.208-0.3,0.409-0.603,0.604-0.903
						c1.449-2.227,2.33-4.895,2.387-7.601c0.033-1.532-0.207-3.045-0.715-4.507c-0.06-0.173-0.213-0.219-0.373-0.145
						c-2.328,1.077-4.091,3.326-5.348,5.505c-1.356,2.352-2.145,4.932-2.328,7.67c0.022,1.104,0.187,2.208,0.516,3.264
						C63.797,158.138,64.604,157.869,65.355,157.454z"/>
					<path style="fill:#5B895D;" d="M67.107,166.439c1.193-0.456,2.242-1.185,3.176-2.051c0.248-0.268,0.489-0.54,0.724-0.81
						c1.745-2.003,2.989-4.523,3.423-7.195c0.246-1.512,0.219-3.044-0.08-4.563c-0.035-0.18-0.181-0.246-0.349-0.195
						c-2.455,0.742-4.515,2.724-6.062,4.707c-1.67,2.14-2.811,4.585-3.373,7.272c-0.132,1.096-0.123,2.212,0.056,3.304
						C65.469,166.899,66.306,166.745,67.107,166.439z"/>
					<path style="fill:#8AB676;" d="M69.457,174.089c1.193-0.456,2.242-1.185,3.176-2.051c0.248-0.268,0.489-0.54,0.724-0.81
						c1.745-2.003,2.989-4.523,3.423-7.194c0.246-1.512,0.219-3.044-0.08-4.563c-0.035-0.18-0.18-0.246-0.349-0.195
						c-2.455,0.742-4.515,2.724-6.062,4.707c-1.67,2.14-2.811,4.585-3.373,7.271c-0.132,1.096-0.123,2.212,0.056,3.305
						C67.82,174.549,68.657,174.395,69.457,174.089z"/>
					<path style="fill:#5B895D;" d="M70.942,185.17c1.233-0.492,2.316-1.287,3.277-2.234c0.255-0.293,0.503-0.591,0.744-0.886
						c1.793-2.192,3.063-4.958,3.492-7.896c0.243-1.663,0.204-3.35-0.119-5.025c-0.038-0.199-0.189-0.272-0.364-0.218
						c-2.54,0.798-4.66,2.964-6.248,5.135c-1.715,2.344-2.879,5.027-3.441,7.981c-0.128,1.206-0.11,2.436,0.084,3.639
						C69.247,185.664,70.114,185.5,70.942,185.17z"/>
					<path style="fill:#446B47;" d="M69.593,189.591c-0.394-3.896-0.913-7.78-1.566-11.639c-1.482-8.756-3.64-17.402-6.533-25.799
						c-2.237-6.494-4.65-12.941-7.493-19.196c-2.912-6.407-6.294-12.651-10.51-18.3c-4.082-5.47-8.939-10.241-14.74-13.87
						c-0.184-0.115-0.333,0.093-0.147,0.21c0.69,0.436,1.375,0.884,2.036,1.363c5.511,3.99,10.086,9.256,13.868,14.878
						c3.908,5.81,7.074,12.084,9.828,18.514c2.763,6.452,5.205,13.08,7.338,19.767c2.687,8.424,4.653,17.073,5.945,25.819
						c0.399,2.704,0.727,5.418,0.999,8.137C68.94,189.543,69.265,189.582,69.593,189.591z"/>
					<path style="fill:#8AB676;" d="M65.623,184.707c-1.731,0.181-3.461-0.045-5.137-0.503c-0.469-0.166-0.932-0.341-1.386-0.516
						c-3.372-1.306-6.463-3.519-8.667-6.397c-1.248-1.629-2.178-3.444-2.77-5.409c-0.07-0.233,0.064-0.398,0.301-0.439
						c3.44-0.603,7.181,0.488,10.301,1.888c3.368,1.511,6.286,3.698,8.656,6.517c0.848,1.208,1.539,2.526,2.008,3.916
						C67.896,184.264,66.785,184.585,65.623,184.707z"/>
					<path style="fill:#5B895D;" d="M63.709,174.577c-1.681,0.452-3.424,0.502-5.151,0.315c-0.49-0.09-0.974-0.189-1.45-0.291
						c-3.536-0.756-6.938-2.453-9.569-4.947c-1.489-1.411-2.695-3.057-3.589-4.903c-0.106-0.219,0-0.403,0.228-0.481
						c3.302-1.139,7.168-0.653,10.47,0.236c3.564,0.96,6.792,2.658,9.577,5.067c1.028,1.059,1.919,2.251,2.602,3.55
						C65.883,173.78,64.837,174.273,63.709,174.577z"/>
					<path style="fill:#8AB676;" d="M61.749,164.857c-1.416,0.485-2.906,0.617-4.392,0.539c-0.423-0.055-0.843-0.118-1.255-0.185
						c-3.063-0.491-6.056-1.822-8.428-3.897c-1.343-1.175-2.455-2.571-3.31-4.16c-0.101-0.188-0.019-0.357,0.171-0.437
						c2.77-1.175,6.101-0.939,8.97-0.318c3.096,0.67,5.941,2.011,8.441,4.003c0.932,0.886,1.751,1.896,2.399,3.012
						C63.571,164.042,62.7,164.532,61.749,164.857z"/>
					<path style="fill:#5B895D;" d="M59.512,157.842c-1.465,0.292-2.958,0.224-4.423-0.052c-0.413-0.111-0.821-0.23-1.221-0.35
						c-2.976-0.896-5.778-2.615-7.872-4.99c-1.186-1.344-2.114-2.877-2.764-4.567c-0.077-0.2,0.025-0.356,0.224-0.411
						c2.893-0.796,6.167-0.117,8.935,0.882c2.987,1.078,5.64,2.787,7.871,5.097c0.813,1.003,1.5,2.114,2.003,3.307
						C61.42,157.277,60.495,157.646,59.512,157.842z"/>
					<path style="fill:#8AB676;" d="M56.86,149.255c-1.465,0.292-2.958,0.224-4.423-0.052c-0.413-0.111-0.821-0.23-1.222-0.35
						c-2.976-0.896-5.778-2.615-7.872-4.99c-1.185-1.344-2.114-2.877-2.764-4.567c-0.077-0.2,0.025-0.356,0.224-0.411
						c2.893-0.796,6.167-0.117,8.935,0.882c2.987,1.078,5.64,2.787,7.871,5.097c0.813,1.003,1.5,2.114,2.003,3.307
						C58.768,148.69,57.843,149.059,56.86,149.255z"/>
					<path style="fill:#5B895D;" d="M53.387,140.652c-1.465,0.292-2.958,0.224-4.423-0.052c-0.413-0.111-0.821-0.23-1.221-0.351
						c-2.976-0.896-5.778-2.615-7.872-4.99c-1.186-1.344-2.114-2.877-2.764-4.567c-0.077-0.2,0.025-0.356,0.225-0.411
						c2.893-0.796,6.167-0.117,8.935,0.882c2.987,1.078,5.64,2.787,7.871,5.097c0.813,1.003,1.5,2.114,2.003,3.307
						C55.295,140.087,54.37,140.456,53.387,140.652z"/>
					<path style="fill:#8AB676;" d="M50.684,134.216c-1.465,0.292-2.958,0.224-4.423-0.052c-0.413-0.111-0.821-0.23-1.221-0.35
						c-2.976-0.896-5.778-2.615-7.872-4.99c-1.186-1.344-2.114-2.877-2.764-4.567c-0.077-0.2,0.025-0.356,0.224-0.411
						c2.893-0.795,6.167-0.117,8.935,0.882c2.987,1.078,5.64,2.787,7.871,5.097c0.813,1.003,1.5,2.114,2.003,3.307
						C52.592,133.651,51.667,134.02,50.684,134.216z"/>
					<path style="fill:#5B895D;" d="M47.33,127.236c-1.465,0.292-2.958,0.224-4.423-0.052c-0.413-0.111-0.821-0.23-1.221-0.351
						c-2.976-0.896-5.778-2.615-7.872-4.99c-1.185-1.344-2.114-2.877-2.764-4.567c-0.077-0.2,0.025-0.356,0.224-0.411
						c2.893-0.795,6.167-0.117,8.935,0.882c2.987,1.078,5.64,2.787,7.871,5.097c0.813,1.003,1.5,2.114,2.003,3.307
						C49.238,126.671,48.313,127.04,47.33,127.236z"/>
					<path style="fill:#8AB676;" d="M35.331,108.017c-1.234-0.442-2.327-1.164-3.304-2.029c-0.26-0.268-0.513-0.541-0.76-0.811
						c-1.833-2.006-3.163-4.547-3.663-7.257c-0.283-1.534-0.288-3.093-0.011-4.644c0.033-0.184,0.18-0.254,0.355-0.205
						c2.537,0.71,4.693,2.688,6.322,4.677c1.759,2.147,2.981,4.614,3.614,7.337c0.158,1.113,0.171,2.249,0.01,3.363
						C37.023,108.455,36.16,108.314,35.331,108.017z"/>
					<path style="fill:#5B895D;" d="M37.348,111.287c-1.137,0.227-2.296,0.174-3.433-0.04c-0.32-0.086-0.637-0.178-0.948-0.272
						c-2.309-0.695-4.484-2.03-6.109-3.872c-0.92-1.043-1.641-2.233-2.145-3.545c-0.06-0.155,0.02-0.276,0.174-0.319
						c2.245-0.618,4.786-0.091,6.934,0.684c2.318,0.837,4.377,2.163,6.109,3.955c0.631,0.778,1.164,1.641,1.555,2.566
						C38.829,110.849,38.111,111.135,37.348,111.287z"/>
					<path style="fill:#8AB676;" d="M42.616,119.621c-1.465,0.292-2.958,0.225-4.423-0.052c-0.413-0.111-0.821-0.23-1.222-0.351
						c-2.976-0.896-5.778-2.615-7.872-4.99c-1.186-1.344-2.114-2.877-2.764-4.567c-0.077-0.2,0.025-0.356,0.224-0.411
						c2.893-0.796,6.167-0.117,8.935,0.882c2.987,1.078,5.64,2.787,7.871,5.097c0.813,1.003,1.5,2.114,2.003,3.307
						C44.524,119.057,43.599,119.425,42.616,119.621z"/>
				</g>
			</g>
		</g>
	</g>
	<g>
		<g>
			<path style="opacity:0.4;fill:#C1A999;" d="M296.478,303.066c-4.826-7.117-19.85-11.135-19.85-11.135l-12.276-0.269
				l-46.833-1.779l-80.699,1.779l-12.271,0.269c0,0-15.027,4.018-19.852,11.135c-4.829,7.111-9.084,18.223,4.916,20.152
				c7.425,1.017,60.11,0.953,107.906,0.668c47.803,0.285,66.615,0.35,74.048-0.668C305.562,321.289,301.304,310.176,296.478,303.066
				z"/>
			<g>
				<g>
					<g>
						<g>
							<path style="fill:#303135;" d="M116.299,302.045l3.353,19.273c0,0,0.183,1.06,2.628,1.06c2.444,0,2.719-1.06,2.719-1.06
								l2.108-18.972c-4.155-0.003-6.945-0.039-8.009-0.098C118.112,302.188,117.182,302.123,116.299,302.045z"/>
						</g>
					</g>
				</g>
				<g>
					<g>
						<g>
							<path style="fill:#303135;" d="M264.136,301.381l3.351,19.938c0,0,0.185,1.06,2.627,1.06c2.444,0,2.721-1.06,2.721-1.06
								l2.11-19.639c-4.157-0.003-6.945-0.033-8.012-0.097C265.948,301.523,265.016,301.458,264.136,301.381z"/>
						</g>
					</g>
				</g>
				<g>
					<path style="fill:#4E5468;" d="M309.881,237.137c-1.306-1.623-2.884-2.968-4.639-4.084c-0.132-0.068-12.691-6.524-21.918,9.878
						c-4.981,8.854-4.427,19.367-4.427,19.367s-1.183-2.213-63.523-3.503c-62.34-1.29-90.438,1.906-90.438,1.906
						c0-37.228-22.432-33.475-22.919-33.391c-11.695,3.779-15.216,12.166-15.133,23.185c0.123,16.477,11.004,17.889,11.004,17.889
						s1.415,11.006,3.996,21.455c2.633,10.663,7.131,11.806,17.214,12.409c10.082,0.6,140.372,0.392,163.487-0.833
						c9.06-0.477,15.825-2.168,17.66-11.8c1.931-10.138,2.445-20.677,2.445-20.677C315.415,267.646,319.288,248.836,309.881,237.137
						z"/>
				</g>
				<g>
					<path style="fill:#4E5468;" d="M138.186,250.117c0,0,13.111-12.189,129.674,0.084c0,0-2.841-20.067,8.909-21.85
						c0,0,1.611-43.467-9.211-55.886c-12.873-14.769-121.502-16.473-134.535,0.246c-11.265,14.454-7.133,52.797-7.133,52.797
						S139.108,226.507,138.186,250.117z"/>
				</g>
				<g>
					<path style="fill:#6C7287;" d="M124.936,260.701c0,0,28.098-3.196,90.438-1.906c62.34,1.29,63.523,3.503,63.523,3.503
						s-5.103-8.222-10.943-12.273c-116.564-12.27-129.675-0.084-129.675-0.084S127.701,254.43,124.936,260.701z"/>
				</g>
				<g>
					<path style="fill:#404B69;" d="M119.927,263.728c0,0,0.023-0.042,0.073-0.117c0.052-0.074,0.125-0.188,0.24-0.318
						c0.109-0.13,0.258-0.276,0.428-0.441c0.18-0.155,0.379-0.34,0.624-0.499c0.233-0.182,0.512-0.331,0.798-0.512
						c0.3-0.149,0.603-0.337,0.946-0.467c0.337-0.146,0.687-0.292,1.055-0.402c0.363-0.129,0.739-0.227,1.118-0.324
						c0.374-0.104,0.76-0.168,1.138-0.24c0.374-0.081,0.749-0.12,1.111-0.162c0.361-0.042,0.71-0.091,1.044-0.094
						c0.332-0.016,0.646-0.033,0.938-0.049c0.289-0.019,0.558-0.003,0.794,0c0.235,0.007,0.439,0.013,0.609,0.016
						c0.339,0.013,0.531,0.02,0.531,0.02s-0.193,0.016-0.529,0.052c-0.169,0.013-0.373,0.029-0.608,0.049
						c-0.233,0.026-0.497,0.036-0.784,0.074c-0.285,0.029-0.596,0.068-0.925,0.104c-0.329,0.029-0.671,0.101-1.026,0.149
						c-0.178,0.029-0.36,0.055-0.541,0.084c-0.181,0.029-0.364,0.074-0.549,0.107c-0.368,0.074-0.745,0.143-1.115,0.25
						c-0.369,0.087-0.741,0.178-1.095,0.305c-0.178,0.059-0.358,0.107-0.532,0.169c-0.173,0.065-0.342,0.129-0.509,0.191
						c-0.339,0.12-0.645,0.279-0.946,0.408c-0.287,0.152-0.57,0.286-0.809,0.444c-0.246,0.146-0.457,0.301-0.65,0.431
						c-0.183,0.146-0.343,0.269-0.462,0.389C120.045,263.573,119.927,263.728,119.927,263.728z"/>
				</g>
				<g>
					<path style="fill:#404B69;" d="M274.945,262.069c0,0,0.152-0.023,0.423-0.042c0.271-0.01,0.66-0.035,1.125-0.01
						c0.463,0.023,1.009,0.065,1.585,0.169c0.577,0.097,1.183,0.262,1.771,0.48c0.295,0.11,0.58,0.246,0.856,0.385
						c0.277,0.146,0.535,0.308,0.776,0.483c0.485,0.341,0.867,0.749,1.152,1.124c0.144,0.185,0.253,0.373,0.343,0.541
						c0.091,0.169,0.152,0.324,0.211,0.447c0.092,0.256,0.138,0.402,0.138,0.402s-0.073-0.136-0.203-0.373
						c-0.074-0.11-0.152-0.253-0.263-0.402c-0.11-0.153-0.238-0.315-0.389-0.487c-0.151-0.168-0.322-0.34-0.521-0.505
						c-0.196-0.169-0.42-0.327-0.652-0.483c-0.235-0.156-0.492-0.295-0.753-0.431c-0.268-0.129-0.541-0.256-0.826-0.356
						c-0.28-0.113-0.569-0.204-0.854-0.292c-0.288-0.081-0.572-0.156-0.85-0.217c-0.556-0.123-1.083-0.224-1.538-0.279
						c-0.457-0.058-0.839-0.107-1.108-0.126C275.097,262.082,274.945,262.069,274.945,262.069z"/>
				</g>
				<g>
					<path style="fill:#6C7287;" d="M283.324,242.932c9.227-16.402,21.787-9.946,21.918-9.878
						c-10.87-6.906-28.382-4.874-28.382-4.874c-11.748,1.783-8.906,21.847-8.906,21.847c5.84,4.051,10.943,12.273,10.943,12.273
						S278.342,251.786,283.324,242.932z"/>
					<path style="fill:#404B69;" d="M283.504,242.974c3.048-5.363,7.656-10.273,14.075-11.051c2.466-0.298,5.317,0.016,7.558,1.17
						c0.068,0.035,0.405,0.039,0.243-0.058c-6.535-4.106-14.665-5.166-22.242-5.218c-4.228-0.026-8.829-0.175-11.883,3.26
						c-3.489,3.925-3.897,10.06-3.768,15.057c0.036,1.283,0.113,2.573,0.285,3.847c0.034,0.263,1.07,0.827,1.295,1.008
						c0.975,0.771,1.882,1.633,2.755,2.521c1.483,1.501,2.839,3.131,4.121,4.809c0.979,1.277,1.925,2.593,2.776,3.961
						c0.036,0.055,0.363,0.172,0.358,0.061c-0.107-2.077,0.074-4.187,0.331-6.245C279.974,251.527,281.264,247.012,283.504,242.974
						c0.039-0.071-0.302-0.188-0.36-0.081c-2.207,3.977-3.458,8.391-4.066,12.882c-0.287,2.129-0.47,4.33-0.361,6.482
						c0.12,0.022,0.238,0.042,0.356,0.065c-1.322-2.126-2.849-4.145-4.451-6.067c-1.419-1.711-2.954-3.328-4.638-4.777
						c-0.342-0.298-0.695-0.58-1.053-0.859c-0.118-0.094-0.786-0.463-0.802-0.583c-0.018-0.129-0.034-0.259-0.049-0.392
						c-0.509-4.434-0.402-9.156,0.891-13.447c0.789-2.625,2.197-5.136,4.537-6.663c1.64-1.073,3.466-1.313,5.361-1.429
						c7.278-0.457,14.945,0.097,21.79,2.745c1.547,0.6,3.04,1.345,4.443,2.223c0.083-0.02,0.164-0.039,0.245-0.058
						c-2.256-1.164-5.048-1.494-7.54-1.3c-6.668,0.522-11.533,5.671-14.663,11.178C283.103,242.964,283.443,243.08,283.504,242.974z
						"/>
				</g>
				<g>
					<path style="fill:#6C7287;" d="M124.936,260.701c2.765-6.271,13.343-10.76,13.343-10.76
						c0.922-23.607-12.294-24.605-12.294-24.605c-10.369-0.639-18.171,0.1-23.968,1.973
						C102.504,227.226,124.936,223.473,124.936,260.701z"/>
					<path style="fill:#404B69;" d="M125.114,260.747c1.51-3.322,4.615-5.727,7.608-7.658c1.807-1.164,3.722-2.226,5.702-3.069
						c0.016-0.006,0.027-0.016,0.033-0.033c0.248-6.777-0.365-14.467-4.743-19.993c-1.781-2.249-4.327-4.067-7.169-4.647
						c-0.21-0.039-0.423-0.078-0.635-0.094c-3.197-0.253-6.431-0.279-9.637-0.185c-4.853,0.139-9.76,0.687-14.402,2.168
						c-0.134,0.046,0.189,0.172,0.258,0.159c5.108-0.895,10.624,1.384,14.218,4.929c2.786,2.745,4.628,6.3,5.877,9.969
						c2,5.873,2.523,12.195,2.534,18.363C124.758,260.772,125.114,260.831,125.114,260.747
						c-0.018-11.184-1.854-26.193-13.169-31.809c-2.975-1.478-6.718-2.291-10.042-1.708c0.086,0.052,0.172,0.107,0.257,0.159
						c4.048-1.293,8.284-1.847,12.513-2.08c2.735-0.149,5.477-0.133,8.212-0.042c1.118,0.039,2.354,0.032,3.35,0.178
						c2.805,0.415,5.313,2.301,7.067,4.437c1.766,2.152,2.887,4.767,3.626,7.432c0.515,1.857,0.818,3.769,1.009,5.688
						c0.115,1.173,0.172,2.356,0.199,3.536c0.013,0.596,0.01,1.196,0.005,1.792c-0.003,0.178,0.057,1.51-0.036,1.549
						c-2.05,0.885-4.024,1.993-5.897,3.202c-2.946,1.899-5.97,4.314-7.452,7.577C124.719,260.737,125.067,260.85,125.114,260.747z"
						/>
				</g>
			</g>
		</g>
		<g>
			<g>
				<path style="fill:#4E5468;" d="M188.637,198.55c1.324-2.369,3.003-6.159,0.907-7.208c-2.038-1.021-5.073,0.639-6.934,1.911
					l-39.29,4.479c-2.1-0.82-5.431-1.755-7.187-0.301c-1.795,1.485,0.654,4.769,2.474,6.783l4.331,37.987
					c-1.319,2.369-2.967,6.119-0.885,7.162c1.839,0.921,4.493-0.346,6.36-1.536l40.446-4.611c2.087,0.74,4.958,1.377,6.543,0.065
					c1.78-1.474-0.62-4.719-2.434-6.734L188.637,198.55z"/>
				<path style="fill:#49A199;" d="M186.698,198.771c1.324-2.369,3.003-6.159,0.907-7.208c-2.038-1.021-5.073,0.639-6.934,1.911
					l-39.29,4.479c-2.1-0.82-5.431-1.755-7.187-0.301c-1.795,1.485,0.654,4.769,2.474,6.783l4.33,37.987
					c-1.319,2.369-2.967,6.119-0.885,7.162c1.839,0.921,4.493-0.346,6.36-1.536l40.446-4.611c2.087,0.739,4.958,1.377,6.543,0.065
					c1.78-1.474-0.62-4.719-2.434-6.734L186.698,198.771z"/>
			</g>
		</g>
	</g>
	<g>
		<path style="fill:#AE5946;" d="M179.564,168.579c0.09-0.01,0.185-0.027,0.279-0.041c-0.012,0.025-0.021,0.05-0.033,0.076
			c-0.409,0.563-0.642,1.317-0.803,1.923c-0.255,0.958-0.405,1.894-0.178,2.874c0.237,1.025,0.771,1.976,1.41,2.804
			c1.188,1.54,2.92,2.724,4.928,2.628c0.176-0.008,0.188-0.196,0.082-0.303c-0.201-0.201-0.347-0.436-0.46-0.687
			c0.553,0.533,1.189,1.014,1.876,1.354c0.942,0.466,2.021,0.754,3.059,0.9c1.067,0.15,2.123,0.136,3.147-0.218
			c0.152-0.053,0.088-0.237-0.017-0.304c-0.455-0.292-0.867-0.632-1.234-1.029c-0.086-0.093-0.167-0.191-0.247-0.29
			c0.686,0.501,1.471,0.885,2.268,1.183c0.621,0.3,1.278,0.532,1.945,0.701c1.705,0.431,3.7,1.066,5.235-0.142
			c0.138-0.109,0.004-0.295-0.119-0.347c-0.409-0.173-0.625-0.519-0.723-0.912c-0.01-0.056-0.024-0.11-0.035-0.165
			c-0.033-0.203-0.033-0.412-0.018-0.616c0.026-0.076,0.053-0.152,0.082-0.225c0.184-0.47,0.438-0.91,0.74-1.314
			c0.329-0.29,0.669-0.569,0.992-0.868c0.435-0.402,0.872-0.864,1.24-1.368c0.097-0.108,0.189-0.219,0.272-0.336
			c-0.144,0.521-0.42,0.994-0.796,1.435c-0.534,0.624-1.117,1.181-1.433,1.956c-0.08,0.198,0.256,0.439,0.428,0.365
			c0.971-0.416,1.941-0.873,2.766-1.542c0.84-0.682,1.474-1.557,1.875-2.561c0.84-2.104,0.417-4.417-0.4-6.456
			c-0.671-1.674-1.658-3.241-2.423-4.862c-0.045-0.255-0.112-0.505-0.181-0.757c-0.131-0.476-0.185-0.923-0.177-1.415
			c0.015-0.942,0.181-1.869,0.577-2.727c0.706-1.527,1.929-2.637,3.153-3.743c1.08-0.976,2.084-2.049,2.684-3.393
			c0.632-1.416,0.729-3.04,0.47-4.556c-0.271-1.589-0.899-3.117-1.548-4.584c-0.672-1.52-1.416-3.008-2.035-4.55
			c-0.639-1.592-1.06-3.216-1.127-4.936c-0.064-1.661,0.161-3.325,0.605-4.925c0.12-0.433,0.26-0.861,0.412-1.284
			c-0.377-3.716-1.908-7.335-4.16-10.283c-2.538-3.323-6.125-5.493-9.963-7.016c-0.027-0.011-0.055-0.02-0.082-0.031
			c-0.082,0.104-0.167,0.206-0.246,0.312c-1.593,2.161-2.453,4.735-2.959,7.348c-0.498,2.57-0.589,5.192-1.36,7.708
			c-0.708,2.307-1.836,4.46-3.239,6.419c-2.3,3.212-17.13,5.706-16.383,9.897c0.419,2.354,3.028,24.991-0.027,25.179
			c-0.264,0.016,8.659,2.751,8.83,2.915C177.316,168.536,178.495,168.7,179.564,168.579z M202.258,156.546
			c0.667-3.626,4.363-5.087,5.267-8.473c0.4-1.497,0.185-3.104-0.329-4.566c-0.65-1.851-1.808-3.446-2.537-5.257
			c-1.493-3.704-1.077-7.551,0.387-11.121c-0.376,1.618-0.529,3.298-0.388,4.955c0.143,1.673,0.63,3.244,1.274,4.787
			c0.654,1.567,1.42,3.085,2.089,4.646c0.652,1.523,1.278,3.129,1.413,4.794c0.132,1.618-0.193,3.218-1.083,4.587
			c-0.838,1.289-2.032,2.209-3.126,3.26c-1.052,1.011-1.988,2.192-2.448,3.594c-0.251,0.767-0.321,1.571-0.307,2.374
			C202.147,159.002,202.023,157.825,202.258,156.546z"/>
		<g>
			<g>
				<path style="fill:#F6DFC9;" d="M250.808,265.174c2.402-0.991,4.902-1.757,7.421-2.479c2.854,9.267,4.972,16.597,5.326,18.825
					l-5.52-0.072c0,0-3.714-6.398-8.68-15.64C249.837,265.589,250.321,265.375,250.808,265.174z"/>
				<g>
					<path style="fill:#F6DFC9;" d="M257.317,283.737c-0.262,1.052-0.354,2.852,0.683,3.544c0.318,0.212,0.717,0.244,1.084,0.351
						c0.991,0.289,1.684,1.255,2.455,1.896c0.819,0.682,1.691,1.303,2.615,1.836c1.873,1.081,3.969,1.796,6.139,1.894
						c1.677,0.076,5.965,0.017,5.706-2.589c-0.074-0.745,0.009-0.861-0.574-1.331c-0.583-0.469-1.426-0.861-2.122-1.137
						c-1.751-0.694-3.811-2.005-5.367-3.073c-0.936-0.642-1.838-1.345-2.675-2.112c-0.755-0.692-2.447-3.022-3.288-3.609
						c-0.577-0.403-1.974,0.737-2.505,0.608c-0.424-0.103-0.856-0.215-1.291-0.257c-0.616-0.06-0.717,0.313-0.538,0.841
						c0.358,1.053,0.038,1.878-0.256,2.894C257.36,283.573,257.338,283.655,257.317,283.737z"/>
					<path style="fill:#D57565;" d="M280.754,290.961c0.54,0.203,1.084,0.4,1.634,0.583c1.02,0.34,2.016,1.026,2.044,2.214
						c0.031,1.294-1.981,1.735-2.938,2.022c-1.344,0.403-2.746,0.606-4.148,0.613c-1.771,0.009-4.742-0.054-6.405-0.665
						c-1.693-0.622-2.409-1.528-4.145-2.025c-1.504-0.431-2.553-1.085-4.085-1.376c-1.242-0.236-2.647-0.436-3.601-1.319
						c-0.528-0.489-1.11-0.897-1.382-1.577c-0.23-0.575-0.328-1.212-0.407-1.823c-0.033-0.258-0.31-3.404-0.061-3.426
						c0.604,0.229,1.195,0.492,1.768,0.8c1.005,0.54,1.904,1.235,2.868,1.842c1.879,1.185,3.981,1.98,6.119,2.516
						c1.422,0.357,2.932,0.725,4.404,0.64c0.599-0.035,1.278-0.165,1.697-0.642c0.348-0.396-0.645-0.668-0.809-1.139
						c1.141,0.505,2.375,0.852,3.549,1.274C278.167,289.946,279.452,290.473,280.754,290.961z"/>
				</g>
			</g>
			<g>
				<path style="fill:#EFCAAC;" d="M234.574,293.516c-0.477,6.379-0.923,11.124-1.201,12.805l-4.659,0.22
					c0,0-0.797-5.183-1.881-13.025H234.574z"/>
				<g>
					<path style="fill:#EFCAAC;" d="M227.503,307.585c-0.544,0.938-1.13,2.642-0.325,3.594c0.246,0.292,0.622,0.433,0.944,0.637
						c0.872,0.553,1.27,1.673,1.833,2.502c0.599,0.882,1.264,1.72,2.004,2.489c1.5,1.558,3.316,2.825,5.374,3.521
						c1.59,0.538,5.726,1.67,6.2-0.906c0.135-0.736-0.125-1.103-0.555-1.716c-0.43-0.613-0.759-0.945-1.351-1.403
						c-1.49-1.152-3.106-2.983-4.305-4.44c-0.722-0.877-1.393-1.802-1.985-2.771c-0.534-0.874-1.514-3.582-2.159-4.379
						c-0.443-0.547-2.101,0.161-2.575-0.11c-0.379-0.217-0.762-0.444-1.169-0.605c-0.576-0.228-0.776,0.102-0.75,0.659
						c0.052,1.111-0.484,1.815-1.048,2.709C227.59,307.44,227.545,307.512,227.503,307.585z"/>
					<path style="fill:#B16153;" d="M248.02,321.02c0.463,0.345,0.931,0.684,1.408,1.013c0.886,0.609,1.652,1.544,1.351,2.693
						c-0.329,1.252-2.385,1.118-3.383,1.129c-1.403,0.015-2.807-0.178-4.156-0.56c-1.704-0.482-4.542-1.366-5.97-2.414
						c-1.454-1.067-1.891-2.135-3.422-3.094c-1.326-0.831-2.152-1.75-3.544-2.455c-1.128-0.571-2.423-1.152-3.095-2.265
						c-0.372-0.616-0.818-1.169-0.891-1.898c-0.062-0.617,0.02-1.256,0.114-1.865c0.039-0.257,0.645-3.357,0.891-3.308
						c0.516,0.388,1.012,0.804,1.477,1.258c0.816,0.798,1.487,1.714,2.245,2.565c1.477,1.66,3.276,3.006,5.182,4.113
						c1.268,0.737,2.617,1.509,4.054,1.835c0.585,0.133,1.273,0.196,1.808-0.147c0.445-0.284-0.434-0.821-0.462-1.319
						c0.956,0.801,2.046,1.477,3.057,2.207C245.816,319.328,246.905,320.19,248.02,321.02z"/>
				</g>
			</g>
			<g>
				<path style="fill:#1571A0;" d="M162.117,215.516c-7.256,15.035-12.603,42.477,27.817,36.141
					c29.226-4.581,41.593-10.061,41.593-10.061s13.652,24.78,18.18,33.367c0,0,8.698-1.837,13.08-6.404
					c0,0-13.951-33.935-17.645-42.964c-3.693-9.029-11.533-14.008-47.031-4.653l0.455-6.596
					C198.567,214.347,191.772,219.094,162.117,215.516z"/>
				<g>
					<path style="opacity:0.4;fill:#1571A0;" d="M189.934,250.282c29.225-4.581,41.593-10.061,41.593-10.061l18.18,34.742
						c-4.528-8.587-18.18-33.367-18.18-33.367s-12.368,5.48-41.593,10.061c-26.101,4.091-33.106-5.905-32.848-17.548
						C157.41,245.147,164.867,254.211,189.934,250.282z"/>
				</g>
				<path style="fill:#06618E;" d="M189.934,251.657c29.226-4.581,41.593-10.061,41.593-10.061s2.101,3.813,4.928,8.966
					l0.039,45.955c0,0-2.106,2.087-9.887,1.566c0,0-6.706-27.958-9.478-48.502C217.13,249.581,201.535,251.797,189.934,251.657z"/>
				<g>
					<path style="fill:#034F82;" d="M236.841,250.458l0.692-0.167c0.114,0.476,0.23,0.929,0.347,1.355l-0.685,0.189
						C237.075,251.404,236.958,250.943,236.841,250.458z M236.238,247.689l0.697-0.142c0.095,0.472,0.191,0.932,0.287,1.376
						l-0.694,0.15C236.431,248.626,236.335,248.164,236.238,247.689z M235.7,244.916l0.699-0.133l0.265,1.383l-0.699,0.136
						L235.7,244.916z M235.174,242.145l0.699-0.133l0.264,1.386l-0.699,0.133L235.174,242.145z M234.627,239.385l0.697-0.144
						c0.094,0.461,0.187,0.923,0.279,1.386l-0.697,0.139C234.814,240.303,234.721,239.843,234.627,239.385z M234.027,236.637
						l0.693-0.161c0.105,0.454,0.21,0.915,0.31,1.382l-0.694,0.15C234.235,237.546,234.132,237.088,234.027,236.637z
						 M233.333,233.92l0.685-0.192c0.126,0.447,0.248,0.905,0.367,1.371l-0.689,0.175
						C233.578,234.815,233.458,234.362,233.333,233.92z M175.92,235.053l0.017-0.711c0.448,0.011,0.912,0.011,1.392,0l0.017,0.711
						c-0.244,0.006-0.485,0.008-0.721,0.008C176.385,235.062,176.15,235.059,175.92,235.053z M178.723,234.283
						c0.451-0.026,0.915-0.064,1.392-0.11l0.068,0.708c-0.485,0.046-0.958,0.083-1.417,0.113L178.723,234.283z M173.073,234.827
						l0.1-0.703c0.439,0.063,0.898,0.113,1.375,0.149l-0.053,0.708C174.001,234.945,173.528,234.893,173.073,234.827z
						 M181.505,234.016c0.451-0.058,0.913-0.122,1.387-0.196l0.108,0.703c-0.479,0.074-0.948,0.14-1.405,0.199L181.505,234.016z
						 M170.269,234.206l0.215-0.678c0.423,0.135,0.869,0.253,1.328,0.353l-0.151,0.694
						C171.182,234.472,170.713,234.347,170.269,234.206z M184.277,233.594l1.388-0.235l0.121,0.7l-1.392,0.237L184.277,233.594z
						 M187.052,233.118l1.386-0.249l0.126,0.7l-1.389,0.248L187.052,233.118z M167.628,233.032l0.367-0.608
						c0.376,0.225,0.783,0.435,1.21,0.624l-0.286,0.65C168.464,233.497,168.03,233.273,167.628,233.032z M189.822,232.616
						l1.383-0.258l0.133,0.697l-1.387,0.261L189.822,232.616z M192.588,232.093l1.383-0.269l0.136,0.697l-1.383,0.269
						L192.588,232.093z M232.626,231.664c-0.046-0.131-0.095-0.258-0.147-0.383l0.655-0.275c0.058,0.136,0.111,0.278,0.162,0.422
						c0.107,0.304,0.212,0.618,0.314,0.937l-0.678,0.217C232.833,232.268,232.731,231.962,232.626,231.664z M195.351,231.549
						l1.381-0.279l0.142,0.697l-1.383,0.279L195.351,231.549z M165.383,231.176l0.532-0.472c0.294,0.332,0.622,0.647,0.973,0.939
						l-0.453,0.547C166.055,231.876,165.701,231.536,165.383,231.176z M198.113,230.988l1.38-0.285l0.144,0.697l-1.381,0.285
						L198.113,230.988z M200.871,230.415l1.38-0.289l0.146,0.697l-1.38,0.289L200.871,230.415z M203.63,229.839l1.378-0.289
						l0.149,0.694l-1.381,0.292L203.63,229.839z M230.955,229.139l0.465-0.539c0.377,0.326,0.714,0.699,1.001,1.107l-0.582,0.408
						C231.586,229.756,231.288,229.427,230.955,229.139z M163.825,228.712l0.653-0.283c0.182,0.419,0.394,0.822,0.63,1.197
						l-0.601,0.378C164.251,229.599,164.022,229.164,163.825,228.712z M206.39,229.26l1.381-0.286l0.143,0.697l-1.378,0.286
						L206.39,229.26z M209.152,228.692l1.383-0.278l0.139,0.697l-1.38,0.278L209.152,228.692z M211.921,228.145l1.387-0.264
						l0.13,0.7l-1.382,0.261L211.921,228.145z M228.619,227.88l0.217-0.678c0.49,0.157,0.946,0.346,1.357,0.565l-0.335,0.628
						C229.485,228.196,229.068,228.023,228.619,227.88z M214.697,227.633c0.473-0.083,0.938-0.164,1.394-0.237l0.114,0.703
						c-0.453,0.074-0.914,0.151-1.385,0.235L214.697,227.633z M217.489,227.178c0.478-0.071,0.946-0.137,1.403-0.196l0.09,0.705
						c-0.453,0.058-0.916,0.122-1.388,0.193L217.489,227.178z M225.932,227.377l0.061-0.708c0.507,0.043,0.988,0.106,1.43,0.186
						l-0.128,0.7C226.876,227.478,226.418,227.419,225.932,227.377z M220.301,226.819c0.483-0.05,0.954-0.092,1.413-0.128
						l0.055,0.708c-0.452,0.036-0.917,0.078-1.395,0.128L220.301,226.819z M163.035,225.922l0.703-0.108
						c0.071,0.46,0.167,0.908,0.287,1.335l-0.685,0.192C163.213,226.887,163.111,226.409,163.035,225.922z M223.134,226.612
						c0.346-0.012,0.682-0.018,1.012-0.018l0.415,0.003l-0.007,0.711l-0.408-0.003c-0.321,0-0.649,0.006-0.985,0.018
						L223.134,226.612z M162.865,223.61c0.001-0.189,0.004-0.378,0.009-0.564l0.711,0.022c-0.005,0.181-0.008,0.361-0.009,0.543
						c0,0.276,0.007,0.557,0.021,0.836l-0.71,0.039C162.872,224.193,162.865,223.901,162.865,223.61z M162.974,221.614
						c0.051-0.488,0.119-0.962,0.196-1.418l0.701,0.12c-0.076,0.442-0.141,0.9-0.191,1.373L162.974,221.614z M163.453,218.794
						c0.117-0.506,0.241-0.969,0.36-1.382l0.683,0.197c-0.117,0.401-0.237,0.854-0.351,1.346L163.453,218.794z"/>
				</g>
				<path style="fill:#034F82;" d="M174.772,216.59c0,0-2.876,6.224-11.529,7.745C163.243,224.335,170.312,222.301,174.772,216.59z"
					/>
			</g>
			<path style="fill:#F2D1B8;" d="M188.047,155.71c0,0,6.248,0.332,9.778,7.133c3.53,6.801,14.371,46.203,14.371,46.203
				l-13.908,1.834L188.047,155.71z"/>
			<path style="fill:#1571A0;" d="M191.527,220.295c-5.918,1.58-12.209,1.692-18.224,0.64c-3.402-0.595-6.777-1.502-9.962-2.849
				c-0.84-0.356-1.672-0.749-2.486-1.177c1.004-4.484,2.332-7.762,2.332-7.762l32.309,0.594l0.454,6.302
				c0,0,0.862,0.456,2.337,1.237C196.315,218.767,193.876,219.668,191.527,220.295z"/>
			<g>
				<path style="fill:#FBAF17;" d="M191.891,217.719c-2.774,0.79-5.662,1.091-8.535,1.222c-3.017,0.138-6.051,0.11-9.061-0.15
					c-4.531-0.393-9.153-1.394-13.166-3.551c0.764-6.744,2.169-9.506,2.482-15.618c0.485-9.45-1.214-38.826,0.31-42.717
					c0.003-0.004,0.005-0.006,0.007-0.01c1.054-0.783,2.129-1.536,3.27-2.193c1.623-0.935,3.361-1.661,5.23-1.893
					c2.315-0.287,4.68-0.138,6.981,0.105c1.616,0.171,3.216,0.448,4.812,0.753c0.817,0.156,1.674,0.28,2.458,0.562
					c0.785,0.282,1.493,0.75,2.104,1.314c1.239,1.143,2.11,2.622,2.95,4.066c0.998,1.714,2.079,3.366,3.161,5.028
					c1.545,2.372,3.072,4.767,4.443,7.246c0.694,2.142,1.287,4.321,1.703,6.361c0.564,2.764-3.867,26.007-5.09,37.797
					C194.68,216.761,193.309,217.315,191.891,217.719z"/>
				<g>
					<g>
						<g>
							<path style="fill:#EFCBB1;" d="M186.011,156.167c1.028,1.853,3.576,4.366,0.734,6.108c-1.931,1.183-4.999,0.256-7.011-0.406
								c-2.462-0.811-4.76-2.128-6.69-3.86c-0.548-0.492-1.081-1.035-1.359-1.716c-0.669-1.642,0.992-2.705,1.068-4.262
								c0.227-4.646,0.611-9.522,0.105-14.2c-0.054-0.502-0.096-1.056-0.305-1.523c0.077-0.138,0.185-0.264,0.366-0.354
								c0.574-0.288,1.341-0.204,1.946-0.083c0.713,0.143,1.4,0.388,2.1,0.577c1.673,0.451,3.333,1.042,4.881,1.824
								c1.513,0.765,2.806,1.808,4.142,2.835c0.443,0.341,0.934,0.625,1.325,1.031c0.144,0.15,0.325,0.348,0.335,0.568
								c0.013,0.299-0.316,0.49-0.465,0.71c-0.995,1.465-1.334,3.682-1.579,5.458c-0.273,1.977-0.476,4.002-0.086,5.977
								C185.619,155.348,185.794,155.776,186.011,156.167z"/>
						</g>
					</g>
					<g>
						<g>
							<g>
								<path style="fill:#F2D1B8;" d="M166.838,125.094c-0.518,4.754-0.211,9.541,2.155,13.789
									c2.224,3.992,5.734,7.201,9.775,9.296c3.79,1.964,8.313,3.225,12.54,2.076c4.174-1.134,7.678-4.455,9.559-8.293
									c1.211-2.47,1.119-5.054,0.949-7.729c-0.093-1.465-0.191-2.925-0.057-4.391c0.132-1.447,0.512-2.854,0.917-4.244
									c0.741-2.545,1.523-5.214,1.03-7.885c-0.098-0.532-0.243-1.043-0.412-1.544c-0.091-0.482-0.195-0.963-0.318-1.438
									c-1.051-4.046-3.457-7.715-7.103-9.856c-3.906-2.293-8.734-2.849-13.095-1.72c-4.623,1.196-8.652,4.224-11.331,8.145
									C168.667,115.363,167.366,120.25,166.838,125.094z"/>
								<path style="fill:#492717;" d="M197.197,128.798c0.169-0.373,0.39-0.737,0.651-1.063c0.645-0.559,1.438-0.952,2.243-1.085
									c0.055-0.009,0.106-0.004,0.159-0.009c0.877,0.139,1.278,0.927,1.532,1.745c-0.048-0.07-0.095-0.142-0.148-0.202
									c-0.182-0.208-0.285-0.305-0.506-0.357c-0.276-0.065-0.577-0.022-0.848,0.051c-1.333,0.358-2.539,1.291-3.381,2.366
									c-0.057,0.073-0.138,0.067-0.214,0.023C196.824,129.766,196.982,129.27,197.197,128.798z"/>
								<path style="fill:#492717;" d="M180.597,126.852c1.581-1.491,3.787-1.964,5.838-1.23c1.781,0.637,3.044,2.136,3.646,3.883
									c-0.058-0.033-0.108-0.076-0.135-0.122c-0.893-1.5-2.838-2.629-4.542-2.87c-1.05-0.148-2.161,0.105-3.141,0.476
									c-0.536,0.202-1.07,0.403-1.57,0.685c-0.495,0.279-0.942,0.648-1.407,0.973c-0.002,0.001-0.005,0.001-0.007,0.003
									C179.599,127.979,180.048,127.369,180.597,126.852z"/>
								<path style="fill:#F6DFC9;" d="M163.738,129.843c0.298,2.125,0.966,4.17,2.552,5.681c0.678,0.646,1.647,1.325,2.628,0.97
									c1.074-0.388,1.089-1.805,1.111-2.758c0.028-1.238,0.061-2.539-0.183-3.755c-0.112-0.557-0.288-1.086-0.498-1.6
									c-0.084-0.43-0.204-0.841-0.295-1.158c-0.365-1.273-1.201-2.949-2.696-3.07c-1.22-0.099-2.115,1.003-2.457,2.05
									C163.521,127.366,163.57,128.646,163.738,129.843z"/>
								<path style="fill:#F6DFC9;" d="M164.707,127.28c0.315-0.492,0.839-0.52,1.317-0.237c0.639,0.378,1.025,1.075,1.303,1.74
									c0.296,0.71,0.482,1.467,0.62,2.223c0.202,1.112,0.203,2.343-0.05,3.447c-0.048,0.21-0.322,0.013-0.309-0.142
									c0.057-0.69,0.107-1.368,0.097-2.048c-0.083-0.013-0.167-0.037-0.238-0.066c-0.127-0.051-0.247-0.12-0.36-0.195
									c-0.242-0.161-0.454-0.368-0.645-0.585c-0.367-0.418-0.637-0.897-0.963-1.343c-0.074-0.101,0.068-0.179,0.139-0.086
									c0.304,0.402,0.609,0.809,0.951,1.179c0.171,0.186,0.355,0.36,0.566,0.5c0.1,0.067,0.206,0.123,0.318,0.166
									c0.075,0.029,0.151,0.05,0.225,0.075c-0.017-0.314-0.047-0.629-0.107-0.946c-0.153-0.817-0.369-1.649-0.735-2.399
									c-0.244-0.499-0.867-1.572-1.576-1.269c-0.545,0.232-0.706,1.069-0.682,1.59c0.004,0.083-0.1,0.033-0.11-0.023
									C164.375,128.346,164.419,127.73,164.707,127.28z"/>
							</g>
						</g>
						<path style="fill:#F6DFC9;" d="M194.249,138.958c0.288-0.196,0.633-0.284,0.936-0.451c0.348-0.192,0.645-0.464,0.978-0.672
							c-0.068-0.14-0.268-0.311-0.342-0.404c-0.105-0.131-0.204-0.267-0.293-0.41c-0.209-0.335-0.37-0.707-0.478-1.086
							c-0.208-0.73-0.255-1.511,0.046-2.221c0.048-0.113,0.247-0.012,0.212,0.093c-0.228,0.687-0.19,1.436,0.016,2.123
							c0.106,0.356,0.254,0.699,0.434,1.025c0.097,0.176,0.381,0.778,0.605,0.789c0.144,0.007,0.371,0.148,0.314,0.324
							c-0.235,0.729-1.118,1.053-1.746,1.346c-0.226,0.105-0.452,0.204-0.635,0.38c-0.229,0.219-0.357,0.515-0.556,0.757
							c-0.124,0.152-0.392-0.035-0.361-0.204C193.476,139.805,193.79,139.272,194.249,138.958z"/>
						<g>
							<path style="fill:#492717;" d="M183.356,131.125c0,1.126,0.48,2.04,1.073,2.04c0.592,0,1.072-0.913,1.072-2.04
								c0-1.127-0.48-2.04-1.072-2.04C183.836,129.085,183.356,129.998,183.356,131.125z"/>
							<path style="fill:#FFFFFF;" d="M183.672,130.326c0,0.221,0.094,0.4,0.21,0.4s0.21-0.179,0.21-0.4
								c0-0.221-0.094-0.399-0.21-0.399S183.672,130.105,183.672,130.326z"/>
						</g>
						<g>
							<path style="fill:#492717;" d="M197.089,132.323c0,1.126,0.48,2.04,1.072,2.04c0.592,0,1.072-0.913,1.072-2.04
								c0-1.126-0.48-2.04-1.072-2.04C197.57,130.283,197.089,131.197,197.089,132.323z"/>
							<path style="fill:#FFFFFF;" d="M197.405,131.524c0,0.221,0.094,0.4,0.21,0.4s0.21-0.179,0.21-0.4
								c0-0.221-0.094-0.399-0.21-0.399S197.405,131.303,197.405,131.524z"/>
						</g>
						<path style="fill:#FFFFFF;" d="M193.926,145.936c-0.907,0.462-2.115,0.699-3.435,0.529c-1.209-0.156-2.349-0.601-3.121-1.275
							c-1.026-0.897-1.376-2.012-1.262-3.017c1.549,0.389,3.099,0.773,4.66,1.121c1.32,0.294,2.64,0.592,3.96,0.885
							c0.325,0.072,0.651,0.138,0.978,0.204C195.294,144.984,194.72,145.532,193.926,145.936z"/>
					</g>
				</g>
			</g>
			<g>
				<path style="fill:#E3E2D7;" d="M207.552,183.849l29.02,12.127l-14.5,33.485l-28.63-11.964l10.667-33.163
					C205.111,184.472,207.341,184.674,207.552,183.849z"/>
				
					<rect x="195.106" y="188.056" transform="matrix(-0.9227 -0.3856 0.3856 -0.9227 325.4134 477.8565)" style="fill:#5282BD;" width="31.029" height="36.487"/>
				<path style="fill:#456EA0;" d="M235.423,195.496c0,0,1.143,0.258,0.776,0.99c-0.474,0.944-4.23-1.038-4.23-1.038l-14.068,33.665
					l3.241,1.354c0,0,1.396,0.379,1.758-0.485l13.634-32.627l0.282-0.675c0,0,0.299-0.716-0.437-1.118l-28.103-11.744l-0.767,0.013
					L235.423,195.496z"/>
				<path style="opacity:0.51;fill:#456EA0;" d="M218.589,229.402l-0.688-0.288l14.068-33.665c0,0,0.269,0.142,0.67,0.331
					L218.589,229.402z"/>
				<path style="fill:#2D4C71;" d="M231.969,195.449l2.705,1.13c0.001,0,0.001,0,0.002,0c0.457,0.13,0.875,0.197,1.166,0.141
					c0.167-0.033,0.291-0.106,0.358-0.233c0.319-0.612-0.776-0.99-0.776-0.99l-27.914-11.665l0.767-0.013l28.103,11.744
					c0.736,0.403,0.437,1.118,0.437,1.118l-0.226,0.54l-0.009,0.021l-0.006-0.004c-0.071,0.075-0.441,0.359-1.742,0.01
					c-0.26-0.07-1.402-0.522-3.107-1.219c-8.034-3.286-28.602-12.031-28.602-12.031l0.215-0.513L231.969,195.449z"/>
			</g>
			<g>
				<path style="fill:#F2D1B8;" d="M183.827,207.742c0.309-0.674,0.688-1.32,1.202-1.859c0.497-0.521,1.109-0.913,1.765-1.204
					c0.883-0.392,1.816-0.689,2.722-1.025c0.927-0.345,1.856-0.685,2.791-1.008c0.811-0.28,1.638-0.605,2.478-0.787
					c0.322-0.07,0.649-0.101,0.971-0.031c0.774-0.017,1.551,0.005,2.322,0.038c1.019,0.044,2.039,0.115,3.051,0.241
					c0.84,0.104,1.681,0.239,2.487,0.504c0.804,0.264,1.49,0.675,2.146,1.202c0.527,0.422,1.138,0.737,1.617,1.219
					c0.182,0.183,0.37,0.418,0.363,0.691c-0.006,0.242-0.187,0.408-0.397,0.5c-0.236,0.104-0.505,0.152-0.779,0.163
					c-1.325-0.121-2.55-0.802-3.772-1.274c-0.398-0.154-0.827-0.236-1.246-0.311c-0.626-0.112-1.262-0.17-1.898-0.185
					c-0.433-0.01-0.865,0.001-1.296,0.027c0.132,0.034,0.264,0.069,0.394,0.109c0.638,0.195,1.216,0.528,1.824,0.796
					c0.597,0.263,1.172,0.51,1.699,0.902c0.005,0.003,0.009,0.008,0.014,0.011c0.393,0.193,0.77,0.415,1.124,0.695
					c0.648,0.512,1.21,1.119,1.733,1.756c0.199,0.242,0.407,0.474,0.615,0.708c0.357,0.299,0.71,0.602,1.038,0.929
					c0.337,0.335,0.698,0.755,0.82,1.225c0.145,0.559-0.338,0.799-0.822,0.829c-0.795,0.051-1.383-0.462-1.894-1.007
					c-0.66-0.705-1.369-1.335-2.153-1.901c-0.18-0.13-0.365-0.248-0.553-0.359c-1.077-0.906-4.411-1.162-4.01-1.013
					c0.074,0.027,0.149,0.047,0.223,0.074c0.057,0.021,0.108,0.024,0.154,0.017c0.868,0.213,1.719,0.486,2.474,0.926
					c0.052,0.065,0.104,0.13,0.154,0.195c0.723,0.94,1.548,1.796,2.33,2.687c0.4,0.456,0.807,0.897,1.219,1.342
					c0.27,0.291,1.844,1.897,0.784,2.094c-0.301,0.056-0.639-0.03-0.924-0.119c-0.395-0.123-0.761-0.338-1.091-0.584
					c-0.73-0.544-1.329-1.243-1.912-1.937c-0.313-0.372-0.614-0.773-0.974-1.101c-0.461-0.419-1.044-0.68-1.636-0.856
					c-0.939-0.278-1.904-0.396-2.876-0.444c0.334,0.106,0.668,0.211,0.999,0.326c1.442,0.502,2.289,1.492,3.296,2.57
					c0.48,0.514,1.099,0.88,1.559,1.41c0.275,0.317,0.543,0.824,0.205,1.201c-0.248,0.277-0.674,0.191-0.979,0.075
					c-1.018-0.387-1.776-1.196-2.621-1.848c-0.975-0.753-2.13-1.202-3.248-1.696c-1.276-0.563-2.309-0.224-3.614,0.015
					c-0.638,0.117-1.281,0.207-1.926,0.274c-1.305,0.137-2.641,0.203-3.951,0.106c-0.499-0.037-1.011-0.144-1.435-0.423
					c-0.325-0.214-0.561-0.503-0.727-0.839C182.939,210.598,183.28,208.933,183.827,207.742z"/>
				<g>
					<g>
						<path style="fill:#F2D1B8;" d="M146.84,196.655c0.254-1.732,0.789-3.415,1.351-5.078c1.424-4.212,2.628-8.484,4.096-12.685
							c2.218-6.346,4.258-14.082,8.724-19.446c1.171-1.406,2.673-2.717,4.351-3.468c0.202-0.066,0.404-0.126,0.61-0.174
							c0.799-0.189,1.557-0.101,2.242,0.335c0.402,0.256,0.752,0.586,1.081,0.925c0.392,0.404,0.72,0.863,0.986,1.356
							c0.546,1.012,0.842,2.14,1.011,3.275c0.319,2.146,0.256,4.345-0.184,6.487c-0.385,1.872-0.999,3.679-1.69,5.464
							c-1.874,3.091-3.832,6.145-5.217,9.477c-0.946,2.276-1.954,4.531-2.866,6.82c-0.854,2.144-1.638,4.314-2.304,6.517
							c-0.552,1.826-1.104,3.745-2.247,5.327c-0.56,0.775-1.294,1.435-2.186,1.816c-0.93,0.396-1.958,0.465-2.94,0.31
							c-1.712-0.269-3.444-1.131-4.283-2.659C146.616,199.869,146.614,198.195,146.84,196.655z"/>
						<path style="fill:#F2D1B8;" d="M185.148,211.457c0,0-27.952-2.254-34.064-6.154c-6.112-3.9-5.104-10.476-1.684-12.346
							c3.419-1.87,8.367-1.303,12.834,1.6c4.467,2.902,24.549,11.478,24.549,11.478L185.148,211.457z"/>
					</g>
				</g>
			</g>
		</g>
		<path style="fill:#954C3A;" d="M151.431,171.097c0.09-0.01,0.185-0.027,0.279-0.041c-0.012,0.025-0.021,0.05-0.033,0.076
			c-0.409,0.563-0.642,1.317-0.803,1.923c-0.255,0.958-0.405,1.894-0.179,2.874c0.237,1.025,0.771,1.976,1.41,2.804
			c1.188,1.54,2.92,2.724,4.928,2.628c0.176-0.008,0.188-0.196,0.082-0.303c-0.2-0.201-0.347-0.436-0.46-0.687
			c0.553,0.533,1.189,1.014,1.876,1.354c0.942,0.466,2.021,0.754,3.059,0.9c1.067,0.15,2.123,0.136,3.147-0.218
			c0.152-0.053,0.088-0.237-0.017-0.304c-0.455-0.292-0.867-0.632-1.234-1.029c-0.086-0.093-0.167-0.191-0.247-0.29
			c0.686,0.501,1.471,0.885,2.268,1.183c0.621,0.301,1.279,0.532,1.945,0.701c1.704,0.431,3.7,1.066,5.234-0.142
			c0.138-0.109,0.004-0.295-0.119-0.347c-0.408-0.173-0.625-0.519-0.723-0.912c-0.01-0.055-0.024-0.11-0.035-0.165
			c-0.033-0.203-0.033-0.412-0.018-0.616c0.026-0.076,0.053-0.152,0.082-0.225c0.184-0.47,0.438-0.91,0.74-1.314
			c0.329-0.29,0.67-0.569,0.992-0.868c0.435-0.403,0.872-0.864,1.24-1.368c0.097-0.108,0.189-0.219,0.272-0.336
			c-0.144,0.522-0.42,0.994-0.796,1.435c-0.534,0.624-1.117,1.181-1.433,1.956c-0.08,0.198,0.256,0.439,0.428,0.365
			c0.971-0.416,1.941-0.873,2.766-1.543c0.84-0.682,1.474-1.557,1.875-2.561c0.84-2.104,0.417-4.416-0.4-6.456
			c-0.671-1.674-1.658-3.241-2.423-4.862c-0.045-0.255-0.112-0.505-0.181-0.757c-0.131-0.475-0.185-0.923-0.177-1.415
			c0.015-0.942,0.18-1.869,0.577-2.727c0.705-1.527,1.929-2.637,3.153-3.743c1.08-0.976,2.084-2.049,2.685-3.393
			c0.632-1.416,0.729-3.04,0.47-4.556c-0.271-1.589-0.899-3.117-1.548-4.584c-0.672-1.52-1.416-3.008-2.035-4.551
			c-0.639-1.592-1.06-3.215-1.127-4.936c-0.064-1.661,0.161-3.325,0.605-4.925c0.318-1.146,0.734-2.271,1.317-3.311
			c0.003-0.006,0.007-0.011,0.01-0.016c0.22-0.317,0.456-0.61,0.704-0.845c0.052,0.01,0.106,0.016,0.158,0.024
			c0.063,0.065,0.149,0.114,0.218,0.114c0.246,0,0.493,0.009,0.738,0.017c0.657,0.069,1.32,0.103,1.971,0.114
			c0.818,0.014,1.636-0.033,2.448-0.128c1.411-0.003,2.778-0.346,4.156-0.613c1.4-0.272,2.801-0.537,4.209-0.761
			c2.68-0.428,5.396-0.716,8.113-0.588c2.083,0.098,4.127,0.462,6.103,1.074c0.058-0.095,0.111-0.191,0.155-0.273
			c0.357-0.671,0.558-1.463,0.717-2.202c0.17-0.793,0.262-1.6,0.318-2.409c0.051-0.742,0.089-1.488,0.001-2.228
			c-0.045-0.371-0.12-0.728-0.217-1.076c0.032,0.079,0.068,0.157,0.098,0.237c0.495,1.334,0.663,2.75,0.555,4.167
			c-0.06,0.785-0.22,1.563-0.44,2.318c-0.164,0.565-0.391,1.106-0.597,1.655c0.101,0.034,0.202,0.066,0.302,0.101
			c0.382-0.628,0.656-1.34,0.87-2.027c0.267-0.858,0.428-1.756,0.46-2.654c0.101-2.829-1.127-5.474-2.993-7.55
			c-0.916-1.02-2.005-1.898-3.231-2.519c-0.047-0.024-0.097-0.046-0.145-0.069c-0.74-1.765-2.022-3.329-3.49-4.53
			c-5.07-4.147-12.457-4.539-18.68-3.588c-3.572,0.546-8.265,1.489-10.497,4.659c-0.77,0.122-1.528,0.321-2.264,0.608
			c-2.056,0.804-3.8,2.227-5.105,3.997c-1.593,2.161-2.453,4.735-2.96,7.348c-0.498,2.57-0.589,5.192-1.36,7.708
			c-0.707,2.307-1.836,4.46-3.239,6.419c-2.3,3.212-4.842,6.581-4.096,10.772c0.419,2.354,1.477,4.536,2.366,6.756
			c1.812,4.526,3.005,9.755,1.073,14.441c-1.258,2.669-3.743,5.368-6.798,5.556c-0.264,0.016-0.297,0.301-0.126,0.465
			C149.184,171.053,150.363,171.218,151.431,171.097z M174.126,159.063c0.667-3.626,4.363-5.087,5.267-8.473
			c0.4-1.497,0.185-3.104-0.329-4.566c-0.65-1.851-1.807-3.446-2.537-5.257c-1.493-3.705-1.077-7.551,0.387-11.121
			c-0.376,1.618-0.529,3.298-0.388,4.955c0.143,1.673,0.63,3.245,1.274,4.788c0.654,1.567,1.42,3.085,2.089,4.646
			c0.652,1.523,1.278,3.129,1.413,4.793c0.132,1.618-0.193,3.218-1.083,4.587c-0.838,1.289-2.032,2.209-3.127,3.26
			c-1.052,1.01-1.988,2.192-2.448,3.594c-0.251,0.766-0.321,1.571-0.307,2.374C174.015,161.52,173.89,160.342,174.126,159.063z"/>
	</g>
</g>
</svg>
